<?xml version="1.0" encoding="UTF-8"?>
<svg version="1.1" xmlns="http://www.w3.org/2000/svg" width="310" height="312">
<path d="M0 0 C102.3 0 204.6 0 310 0 C310 102.96 310 205.92 310 312 C207.7 312 105.4 312 0 312 C0 209.04 0 106.08 0 0 Z " fill="#EFEDF8" transform="translate(0,0)"/>
<path d="M0 0 C102.3 0 204.6 0 310 0 C310 102.96 310 205.92 310 312 C207.7 312 105.4 312 0 312 C0 209.04 0 106.08 0 0 Z M122 7 C120.81519043 7.29801514 120.81519043 7.29801514 119.60644531 7.60205078 C96.74802634 13.55058671 75.9647719 23.5411836 58 39 C57.3296875 39.56074219 56.659375 40.12148438 55.96875 40.69921875 C53.93932336 42.42664737 51.96316076 44.19763145 50 46 C49.23042969 46.70382813 48.46085937 47.40765625 47.66796875 48.1328125 C35.93753527 59.3275254 27.41967496 72.68371746 20 87 C19.68047363 87.60779297 19.36094727 88.21558594 19.03173828 88.84179688 C3.52225543 118.7095098 -0.84623838 155.2867463 7 188 C7.16628906 188.72123047 7.33257812 189.44246094 7.50390625 190.18554688 C11.60971119 207.59720116 18.57842199 223.8164652 28 239 C28.58265625 239.94359375 29.1653125 240.8871875 29.765625 241.859375 C31.75708565 245.02152284 31.75708565 245.02152284 34 248 C34.66 248 35.32 248 36 248 C36.25007813 248.55558594 36.50015625 249.11117187 36.7578125 249.68359375 C49.08955101 272.67957153 77.51991623 289.00442261 101 298 C102.19753906 298.46019531 103.39507812 298.92039062 104.62890625 299.39453125 C108.38511973 300.73574664 112.16508998 301.91153751 116 303 C116.66225586 303.19754883 117.32451172 303.39509766 118.00683594 303.59863281 C140.9358883 310.17902313 170.19290142 309.85865646 193 303 C194.28100586 302.6299585 194.28100586 302.6299585 195.58789062 302.25244141 C223.1022683 294.17368848 246.22080108 279.83454344 266 259 C266.92232422 258.03320312 266.92232422 258.03320312 267.86328125 257.046875 C289.11822411 233.7885927 300.99924973 203.85438429 305 173 C305.13277344 172.04351562 305.26554687 171.08703125 305.40234375 170.1015625 C310.12577011 131.14947114 296.93860522 91.30743104 273.04296875 60.76171875 C265.57171599 51.43036368 257.54152106 43.26193019 248 36 C247.15050781 35.33484375 246.30101562 34.6696875 245.42578125 33.984375 C228.63717407 21.23607538 208.54606069 11.70989431 188 7 C186.74316406 6.70222656 185.48632812 6.40445312 184.19140625 6.09765625 C164.2915762 1.86440674 141.75400121 2.00994023 122 7 Z " fill="#000001" transform="translate(0,0)"/>
<path d="M0 0 C0.33 0 0.66 0 1 0 C1 49.17 1 98.34 1 149 C-47.18 149 -95.36 149 -145 149 C-145 148.67 -145 148.34 -145 148 C-144.43829102 147.94054199 -143.87658203 147.88108398 -143.29785156 147.81982422 C-126.63934033 145.98502268 -110.71473057 142.63390218 -95.26171875 135.97265625 C-93.61756463 135.26558479 -91.94933756 134.61370494 -90.26953125 133.99609375 C-81.92649974 130.83301576 -74.95227583 126.26204942 -67.69213867 121.17358398 C-66.08274252 120.05738614 -64.44620795 118.98062113 -62.80859375 117.90625 C-57.91380491 114.58405674 -53.6149886 110.6149886 -49.4375 106.4375 C-47.5917049 104.5917049 -45.84772192 103.09504602 -43.8125 101.5 C-17.74175571 79.20191201 -2.80185857 38.22414013 -0.1875 5 C-0.10724151 3.33409406 -0.03582419 1.66745334 0 0 Z " fill="#000001" transform="translate(309,163)"/>
<path d="M0 0 C47.52 0 95.04 0 144 0 C144 47.52 144 95.04 144 144 C143.67 144 143.34 144 143 144 C142.91024902 143.37770508 142.82049805 142.75541016 142.72802734 142.11425781 C139.87796236 122.77072835 135.95267353 104.50410678 127 87 C126.26330078 85.49759766 126.26330078 85.49759766 125.51171875 83.96484375 C124.10769935 81.2112243 122.60629294 78.57700742 121 75.9375 C120.505 75.12152344 120.01 74.30554688 119.5 73.46484375 C118.45069647 71.74059758 117.38695702 70.02509138 116.3125 68.31640625 C115 66 115 66 115 64 C113.515 63.505 113.515 63.505 112 63 C110.17578125 60.78515625 110.17578125 60.78515625 108.3125 58.0625 C107.37857422 56.71865234 107.37857422 56.71865234 106.42578125 55.34765625 C105 53 105 53 105 51 C104.443125 50.773125 103.88625 50.54625 103.3125 50.3125 C100.35336147 48.63298894 98.38689624 46.42511437 96 44 C90.19642765 38.4514331 84.4771737 33.31024125 77.58203125 29.15625 C77.05996094 28.7746875 76.53789062 28.393125 76 28 C76 27.34 76 26.68 76 26 C74.02 25.34 72.04 24.68 70 24 C70 23.34 70 22.68 70 22 C69.175 21.7525 68.35 21.505 67.5 21.25 C64.16357238 20.05841871 61.15728256 18.63857737 58.02734375 17 C55.72845364 15.86605806 53.38473904 14.93955132 51 14 C50.1234375 13.62101563 49.246875 13.24203125 48.34375 12.8515625 C35.53231398 7.32575081 22.39943617 3.25588861 8.5 1.875 C7.26636719 1.74544922 7.26636719 1.74544922 6.0078125 1.61328125 C4.00573474 1.40376148 2.00293603 1.20114956 0 1 C0 0.67 0 0.34 0 0 Z " fill="#000001" transform="translate(166,0)"/>
<path d="M0 0 C0.33 0 0.66 0 1 0 C1.18175781 1.16015625 1.36351563 2.3203125 1.55078125 3.515625 C5.086725 25.68308931 10.82784212 49.3623796 24 68 C24.54527344 68.79664063 25.09054688 69.59328125 25.65234375 70.4140625 C31.60514647 79.4616891 31.60514647 79.4616891 38.671875 87.59765625 C40 89 40 89 40 91 C40.99 91.33 41.98 91.66 43 92 C44.61328125 93.92578125 44.61328125 93.92578125 46.3125 96.3125 C49.19444046 100.14499645 51.84824507 102.52661409 56 105 C57.09796066 105.87784444 58.18139883 106.77414355 59.25 107.6875 C61.74961027 109.97204387 61.74961027 109.97204387 64 111 C64 111.66 64 112.32 64 113 C64.56976563 113.28101563 65.13953125 113.56203125 65.7265625 113.8515625 C67.96863389 114.98415527 70.17489993 116.16301505 72.375 117.375 C73.46941406 117.97441406 73.46941406 117.97441406 74.5859375 118.5859375 C77 120 77 120 79.8125 121.953125 C98.46726686 133.93241156 122.50630785 137.90005528 144 141 C144 141.33 144 141.66 144 142 C96.48 142 48.96 142 0 142 C0 95.14 0 48.28 0 0 Z " fill="#000001" transform="translate(0,170)"/>
<path d="M0 0 C0.99 0.99 0.99 0.99 2 2 C3.52132472 2.67300239 5.06718203 3.29142113 6.625 3.875 C11.24653867 5.66181582 15.6026548 7.71989508 20 10 C20 10.66 20 11.32 20 12 C20.57621094 12.103125 21.15242187 12.20625 21.74609375 12.3125 C24.39038738 13.1190783 25.91401855 14.26515143 28.0625 16 C28.84238281 16.62777344 29.62226563 17.25554688 30.42578125 17.90234375 C31.27527344 18.59457031 32.12476563 19.28679688 33 20 C33.94230469 20.74378906 34.88460937 21.48757812 35.85546875 22.25390625 C44.03875359 28.7806557 44.03875359 28.7806557 46.8125 32.3125 C48.90127985 35.15700648 48.90127985 35.15700648 52.0625 37 C55.44852832 39.30538099 56.90402546 41.5067091 59 45 C61.37729455 48.8645999 61.37729455 48.8645999 64.3515625 52.2421875 C66.79467993 54.84740751 68.50400139 57.87817103 70.3125 60.9375 C70.90961792 61.94502319 70.90961792 61.94502319 71.51879883 62.97290039 C87.4434648 90.11275461 94.8421668 119.5828961 94 151 C93.98195313 152.07507813 93.96390625 153.15015625 93.9453125 154.2578125 C92.67386754 182.30439247 82.2927987 207.9042708 67 231 C66.59958496 231.60682617 66.19916992 232.21365234 65.78662109 232.83886719 C54.71894139 249.50215345 40.96162251 263.34462176 24 274 C22.906875 274.7321875 21.81375 275.464375 20.6875 276.21875 C14.83213099 280.1265845 9.12803414 283.72909297 2.4609375 286.11328125 C-0.25914364 287.09337398 -2.8589057 288.26167035 -5.5 289.4375 C-43.36783516 305.09531988 -85.05753344 302.63655136 -122.625 287.4375 C-130.77832258 283.84314793 -138.54081862 279.87715706 -146 275 C-146.90492188 274.43925781 -146.90492188 274.43925781 -147.828125 273.8671875 C-149.25526249 272.96689049 -150.63387836 271.99043819 -152 271 C-152 270.34 -152 269.68 -152 269 C-153.65 268.34 -155.3 267.68 -157 267 C-157 266.34 -157 265.68 -157 265 C-157.804375 264.62875 -157.804375 264.62875 -158.625 264.25 C-164.79765981 261.00123168 -168.17964577 257.76756986 -172.33984375 252.171875 C-174.34947944 249.54279867 -176.63140191 247.30626656 -179 245 C-191.83806975 230.05387282 -201.03091781 213.33656168 -208 195 C-208.32871094 194.14664063 -208.65742188 193.29328125 -208.99609375 192.4140625 C-211.3706099 185.79494494 -212.67670808 178.89152587 -214 172 C-214.20882812 171.00097656 -214.41765625 170.00195312 -214.6328125 168.97265625 C-220.74435547 134.84270149 -213.93985412 95.80652823 -196 66 C-195.34 66 -194.68 66 -194 66 C-193.89558594 65.27425781 -193.79117188 64.54851562 -193.68359375 63.80078125 C-192.93657973 60.74015809 -191.82451352 58.78528522 -190.0625 56.1875 C-189.27552734 55.00220703 -189.27552734 55.00220703 -188.47265625 53.79296875 C-187.98667969 53.20128906 -187.50070313 52.60960938 -187 52 C-186.34 52 -185.68 52 -185 52 C-185 51.34 -185 50.68 -185 50 C-184.34 50 -183.68 50 -183 50 C-182.92136719 49.43925781 -182.84273437 48.87851562 -182.76171875 48.30078125 C-181.74161941 45.21955813 -180.03017859 43.54633736 -177.8125 41.1875 C-175.13280909 38.30978162 -172.51845636 35.44494545 -170.0625 32.375 C-165.82660452 27.37759522 -160.2637038 22.08790127 -154 20 C-154 19.34 -154 18.68 -154 18 C-144.21160572 10.1091195 -122.8705176 -4 -110 -4 C-110 -4.66 -110 -5.32 -110 -6 C-109.0821875 -6.12117187 -108.164375 -6.24234375 -107.21875 -6.3671875 C-99.54447137 -7.34433403 -99.54447137 -7.34433403 -92 -9 C-62.0461991 -16.86287274 -28.2131126 -11.96538258 0 0 Z M-94 -5 C-95.18480957 -4.70198486 -95.18480957 -4.70198486 -96.39355469 -4.39794922 C-119.25197366 1.55058671 -140.0352281 11.5411836 -158 27 C-158.6703125 27.56074219 -159.340625 28.12148438 -160.03125 28.69921875 C-162.06067664 30.42664737 -164.03683924 32.19763145 -166 34 C-166.76957031 34.70382813 -167.53914063 35.40765625 -168.33203125 36.1328125 C-180.06246473 47.3275254 -188.58032504 60.68371746 -196 75 C-196.31952637 75.60779297 -196.63905273 76.21558594 -196.96826172 76.84179688 C-212.47774457 106.7095098 -216.84623838 143.2867463 -209 176 C-208.83371094 176.72123047 -208.66742188 177.44246094 -208.49609375 178.18554688 C-204.39028881 195.59720116 -197.42157801 211.8164652 -188 227 C-187.41734375 227.94359375 -186.8346875 228.8871875 -186.234375 229.859375 C-184.24291435 233.02152284 -184.24291435 233.02152284 -182 236 C-181.34 236 -180.68 236 -180 236 C-179.74992187 236.55558594 -179.49984375 237.11117187 -179.2421875 237.68359375 C-166.91044899 260.67957153 -138.48008377 277.00442261 -115 286 C-113.80246094 286.46019531 -112.60492188 286.92039062 -111.37109375 287.39453125 C-107.61488027 288.73574664 -103.83491002 289.91153751 -100 291 C-99.33774414 291.19754883 -98.67548828 291.39509766 -97.99316406 291.59863281 C-75.0641117 298.17902313 -45.80709858 297.85865646 -23 291 C-21.71899414 290.6299585 -21.71899414 290.6299585 -20.41210938 290.25244141 C7.1022683 282.17368848 30.22080108 267.83454344 50 247 C50.92232422 246.03320312 50.92232422 246.03320312 51.86328125 245.046875 C73.11822411 221.7885927 84.99924973 191.85438429 89 161 C89.13277344 160.04351562 89.26554687 159.08703125 89.40234375 158.1015625 C94.12577011 119.14947114 80.93860522 79.30743104 57.04296875 48.76171875 C49.57171599 39.43036368 41.54152106 31.26193019 32 24 C31.15050781 23.33484375 30.30101562 22.6696875 29.42578125 21.984375 C12.63717407 9.23607538 -7.45393931 -0.29010569 -28 -5 C-29.25683594 -5.29777344 -30.51367188 -5.59554688 -31.80859375 -5.90234375 C-51.7084238 -10.13559326 -74.24599879 -9.99005977 -94 -5 Z " fill="#104C70" transform="translate(216,12)"/>
<path d="M0 0 C3 2.25 3 2.25 4.25 3.515625 C10.29326618 8.64160971 14.93052341 9.50881383 22.625 9.5 C35.37227024 9.82206578 47.11027421 12.28251736 56.5 21.4375 C58.33678958 24.57534887 58.55653563 26.42227094 58 30 C54.77208445 32.1519437 53.71599191 32.20086443 50 32 C49.7525 30.88625 49.505 29.7725 49.25 28.625 C48.39603141 25.02223041 48.39603141 25.02223041 46.1875 23.6875 C45.1046875 23.3471875 45.1046875 23.3471875 44 23 C43.29875 22.62875 42.5975 22.2575 41.875 21.875 C36.78244944 20.32509331 31.63926067 19.90140228 26.64453125 21.98046875 C22.93917191 24.17398749 20.56851931 25.87771056 19 30 C19.08043695 34.42403201 19.53287406 36.43453176 22.375 39.875 C27.59922833 44.10413722 33.56873744 43.45146611 40 43 C44.37299942 41.67248232 46.12552012 40.14437262 48.375 36.3125 C48.91125 35.219375 49.4475 34.12625 50 33 C52.31 33.33 54.62 33.66 57 34 C57.75 36.125 57.75 36.125 58 39 C54.4165824 45.75336394 50.14166229 48.75716391 43 51 C44.37285156 50.98259766 44.37285156 50.98259766 45.7734375 50.96484375 C47.55621094 50.95130859 47.55621094 50.95130859 49.375 50.9375 C50.55835938 50.92589844 51.74171875 50.91429687 52.9609375 50.90234375 C56 51 56 51 58 52 C57.9375 54.3125 57.9375 54.3125 57 57 C50.72806792 61.0840488 43.28184126 60.70711041 36 61 C36.91523437 61.19335938 37.83046875 61.38671875 38.7734375 61.5859375 C39.96195313 61.84632813 41.15046875 62.10671875 42.375 62.375 C43.55835938 62.63023437 44.74171875 62.88546875 45.9609375 63.1484375 C49 64 49 64 51 66 C50.46428571 69.53571429 50.46428571 69.53571429 49 71 C36.26543437 71.96109929 24.44675993 66.96450662 14 60 C18.86296817 64.86296817 24.82627357 68.13362702 31 71 C31.042721 72.66611905 31.04063832 74.33382885 31 76 C30 77 30 77 26.875 77.28125 C22.5467263 76.9671011 19.63618778 75.69874234 16 73.5 C15.38697021 73.13036133 14.77394043 72.76072266 14.14233398 72.37988281 C3.16826526 65.52455989 0.53247167 57.68702907 -3.38671875 45.8125 C-6.49128234 36.42820983 -9.40207896 30.25235902 -18 25 C-18.99 24.38125 -19.98 23.7625 -21 23.125 C-21.66 22.75375 -22.32 22.3825 -23 22 C-22.35508516 13.93856447 -18.89069239 9.32967407 -13 4 C-8.57780362 0.44301595 -5.69728877 -0.9156357 0 0 Z " fill="#044E7D" transform="translate(87,100)"/>
<path d="M0 0 C9.17271709 0.19940689 17.20448003 5.60764074 23.46484375 11.99609375 C28.66485154 18.78389017 30.83853213 26.18013984 33.26757812 34.26171875 C35.44200052 41.15817056 37.71316659 46.78632668 43.859375 50.92578125 C44.81328125 51.38339844 45.7671875 51.84101563 46.75 52.3125 C51.91688771 54.83377542 51.91688771 54.83377542 53 57 C50.9003416 62.41692693 48.05264813 67.80760539 44 72 C43.34 72 42.68 72 42 72 C42 72.66 42 73.32 42 74 C40.56570999 74.67354499 39.12742943 75.33859701 37.6875 76 C36.88699219 76.37125 36.08648437 76.7425 35.26171875 77.125 C33 78 33 78 30 78 C28.31066078 76.3563186 26.64740076 74.6857124 25 73 C19.80004217 69.25603036 16.40478326 67.93723933 9.99609375 67.70996094 C-2.22375582 67.27209977 -14.60414888 66.06359174 -25 59 C-27.87699027 55.78051089 -28.86466029 54.00538068 -29.4375 49.75 C-29.293125 48.8425 -29.14875 47.935 -29 47 C-26 45 -26 45 -23.5 45.0625 C-20.16648328 46.31256877 -19.6528011 47.90998056 -18 51 C-14.82237262 54.69014792 -12.66249529 55.74408548 -7.88671875 56.203125 C-1.7179427 56.33460868 2.98129235 55.51558971 7.875 51.4375 C10.32879464 48.30209574 10.4526602 45.92305508 10 42 C7.74069022 38.54458504 5.95562363 36.47781181 2.25 34.625 C-4.58361595 33.31084309 -10.12801388 33.27308339 -16.3359375 36.7109375 C-18.88390703 38.68471671 -19.91781601 41.02399403 -21 44 C-26.75 44.125 -26.75 44.125 -29 43 C-28.71061552 38.17692541 -27.92229418 34.98993597 -24.609375 31.35546875 C-21.73895716 28.9379081 -18.43779277 27.45018554 -15 26 C-15.75925781 26.09539062 -16.51851562 26.19078125 -17.30078125 26.2890625 C-18.29464844 26.39992188 -19.28851563 26.51078125 -20.3125 26.625 C-21.29863281 26.74101563 -22.28476563 26.85703125 -23.30078125 26.9765625 C-26 27 -26 27 -29 25 C-29 22.6875 -29 22.6875 -28 20 C-21.89381124 16.83382805 -15.7976964 16.3623772 -9 16 C-9.85464844 15.79503906 -10.70929688 15.59007813 -11.58984375 15.37890625 C-12.69457031 15.10949219 -13.79929688 14.84007813 -14.9375 14.5625 C-16.03964844 14.29566406 -17.14179688 14.02882813 -18.27734375 13.75390625 C-21 13 -21 13 -22 12 C-22.04063832 10.33382885 -22.042721 8.66611905 -22 7 C-16.65605597 4.32802798 -10.54516521 6.42391355 -5.1875 8.1875 C-4.14625977 8.52044067 -4.14625977 8.52044067 -3.08398438 8.86010742 C2.55339239 10.72156713 7.82623211 13.07731862 13 16 C13 15.67 13 15.34 13 15 C11.46212857 14.00262319 9.89335502 13.05274265 8.3125 12.125 C7.44238281 11.61195312 6.57226562 11.09890625 5.67578125 10.5703125 C4.79277344 10.05210938 3.90976563 9.53390625 3 9 C1.33231938 8.00169187 -0.33465859 7.00220546 -2 6 C-1.125 1.125 -1.125 1.125 0 0 Z " fill="#034E7D" transform="translate(182,86)"/>
<path d="M0 0 C4.66720106 1.59455238 8.38560849 4.14190703 12.4375 6.875 C22.59973598 13.58104405 33.20646062 19.38046645 44 25 C44.69867188 25.36641602 45.39734375 25.73283203 46.1171875 26.11035156 C56.61034241 31.54430678 67.59949233 34.99779062 79 38 C79.71889404 38.19722656 80.43778809 38.39445312 81.1784668 38.59765625 C96.60375091 42.48652923 114.05258261 41.08883985 129 36 C130.06476563 35.66097656 131.12953125 35.32195312 132.2265625 34.97265625 C145.7597786 30.25450027 158.3517065 22.64297993 169.76147461 14.0480957 C173.81884913 11 173.81884913 11 176 11 C176 10.34 176 9.68 176 9 C178.1875 7.2734375 178.1875 7.2734375 181 5.375 C181.928125 4.74335938 182.85625 4.11171875 183.8125 3.4609375 C184.534375 2.97882813 185.25625 2.49671875 186 2 C187.98 3.98 187.98 3.98 190 6 C159.91790879 29.7463083 128.56968039 50.00248539 88.67626953 45.75244141 C79.54828489 44.5111668 70.67936535 42.0466771 62 39 C60.35064453 38.42185547 60.35064453 38.42185547 58.66796875 37.83203125 C36.90531066 29.65003962 16.91180179 17.37135576 -2 4 C-1.34 2.68 -0.68 1.36 0 0 Z " fill="#135279" transform="translate(61,190)"/>
<path d="M0 0 C4.80798088 3.42106332 9.03742198 6.99021106 13.25 11.125 C23.48424948 20.90861046 36.69511159 27.21020291 49 34 C48.67 34.99 48.34 35.98 48 37 C48.763125 36.95875 49.52625 36.9175 50.3125 36.875 C53 37 53 37 56 39 C55.505 39.99 55.505 39.99 55 41 C44.49380799 36.75780907 34.49403216 32.20763641 25 26 C24.09507813 25.43925781 24.09507813 25.43925781 23.171875 24.8671875 C21.74473751 23.96689049 20.36612164 22.99043819 19 22 C19 21.34 19 20.68 19 20 C17.35 19.34 15.7 18.68 14 18 C14 17.34 14 16.68 14 16 C13.195625 15.62875 13.195625 15.62875 12.375 15.25 C6.46843421 12.14128116 1.81818679 8.49710581 -2 3 C-2 2.34 -2 1.68 -2 1 C-1.34 0.67 -0.68 0.34 0 0 Z " fill="#0D4A6E" transform="translate(45,261)"/>
<path d="M0 0 C3.33351672 1.25006877 3.8471989 2.84748056 5.5 5.9375 C7.94293953 8.69565754 10.10957914 10.48446249 13.5 11.9375 C12.84 11.9375 12.18 11.9375 11.5 11.9375 C11.17 13.2575 10.84 14.5775 10.5 15.9375 C16.37590017 19.83734122 22.50097451 19.48922636 29.375 19.625 C30.5403125 19.65916016 31.705625 19.69332031 32.90625 19.72851562 C35.77073718 19.81069354 38.63492985 19.87994421 41.5 19.9375 C41.5 20.9275 41.5 21.9175 41.5 22.9375 C10.42335411 22.03897285 10.42335411 22.03897285 -1.5 13.9375 C-4.37699027 10.71801089 -5.36466029 8.94288068 -5.9375 4.6875 C-5.793125 3.78 -5.64875 2.8725 -5.5 1.9375 C-2.5 -0.0625 -2.5 -0.0625 0 0 Z " fill="#175882" transform="translate(158.5,131.0625)"/>
<path d="M0 0 C2.875 0.5625 2.875 0.5625 6 2 C7.375 5.625 7.375 5.625 8 9 C8 6.69 8 4.38 8 2 C9.5 3.25 9.5 3.25 11 5 C11 6.32 11 7.64 11 9 C13.64 9 16.28 9 19 9 C19.99 7.02 20.98 5.04 22 3 C22.99 3 23.98 3 25 3 C24.34 3.99 23.68 4.98 23 6 C23.495 6.495 23.495 6.495 24 7 C23.01 8.98 22.02 10.96 21 13 C19.906875 12.814375 18.81375 12.62875 17.6875 12.4375 C14.06375867 11.7421932 14.06375867 11.7421932 11 13 C8.99124558 12.72428861 6.98821313 12.39764263 5 12 C5.185625 12.886875 5.37125 13.77375 5.5625 14.6875 C5.98718604 17.90298005 6.01942442 19.94172673 5 23 C4.01 23.66 3.02 24.32 2 25 C1.01 24.67 0.02 24.34 -1 24 C-0.505 23.2575 -0.01 22.515 0.5 21.75 C2.31923475 18.93681812 2.31923475 18.93681812 2 15 C-0.31 14.67 -2.62 14.34 -5 14 C-5.804375 15.670625 -5.804375 15.670625 -6.625 17.375 C-8.34958891 20.44576082 -8.84217726 20.93019379 -12.25 22.4375 C-13.1575 22.623125 -14.065 22.80875 -15 23 C-14.67 22.34 -14.34 21.68 -14 21 C-13.34 21 -12.68 21 -12 21 C-11.87625 20.443125 -11.7525 19.88625 -11.625 19.3125 C-10.94023145 16.77885636 -10.00866237 14.42078968 -9 12 C-9.99 12.33 -10.98 12.66 -12 13 C-11.67 11.68 -11.34 10.36 -11 9 C-10.01 9 -9.02 9 -8 9 C-7.67 7.68 -7.34 6.36 -7 5 C-6.34 6.98 -5.68 8.96 -5 11 C-1.535 10.505 -1.535 10.505 2 10 C2.17942163 6.05272412 2.09350689 3.4019487 0 0 Z " fill="#DBEAF7" transform="translate(142,120)"/>
<path d="M0 0 C5.21570117 2.18331677 7.91061532 4.36592298 11 9 C11.5 12.25 11.5 12.25 11 15 C7.77208445 17.1519437 6.71599191 17.20086443 3 17 C2.7525 15.88625 2.505 14.7725 2.25 13.625 C1.39603141 10.02223041 1.39603141 10.02223041 -0.8125 8.6875 C-1.534375 8.460625 -2.25625 8.23375 -3 8 C-3.70125 7.62875 -4.4025 7.2575 -5.125 6.875 C-10.20953076 5.32753412 -15.42978551 4.81505866 -20.35546875 7.0859375 C-22.30716301 8.31596703 -24.15324988 9.61946376 -26 11 C-26.99 11.495 -26.99 11.495 -28 12 C-28 9.69 -28 7.38 -28 5 C-23.34462644 4.07907719 -18.85314567 3.87794003 -14.125 3.9375 C-13.09246094 3.94426758 -13.09246094 3.94426758 -12.0390625 3.95117188 C-10.35933665 3.96283664 -8.67965625 3.98076729 -7 4 C-7 3.01 -7 2.02 -7 1 C-4.03 1.495 -4.03 1.495 -1 2 C-1.33 3.65 -1.66 5.3 -2 7 C-0.02 7.66 1.96 8.32 4 9 C2.80100302 5.9168649 1.52299523 2.93720508 0 0 Z " fill="#114E78" transform="translate(134,115)"/>
<path d="M0 0 C1.23621094 0.37125 2.47242188 0.7425 3.74609375 1.125 C4.67550781 1.41375 5.60492188 1.7025 6.5625 2 C6.5625 2.66 6.5625 3.32 6.5625 4 C5.9025 4 5.2425 4 4.5625 4 C4.5625 4.66 4.5625 5.32 4.5625 6 C3.2425 6 1.9225 6 0.5625 6 C0.8925 6.99 1.2225 7.98 1.5625 9 C2.8825 9.66 4.2025 10.32 5.5625 11 C-1.0375 10.67 -7.6375 10.34 -14.4375 10 C-14.4375 9.67 -14.4375 9.34 -14.4375 9 C-8.9925 8.505 -8.9925 8.505 -3.4375 8 C-4.29214844 7.79503906 -5.14679688 7.59007813 -6.02734375 7.37890625 C-7.13207031 7.10949219 -8.23679688 6.84007813 -9.375 6.5625 C-10.47714844 6.29566406 -11.57929688 6.02882813 -12.71484375 5.75390625 C-15.4375 5 -15.4375 5 -16.4375 4 C-16.47813832 2.33382885 -16.480221 0.66611905 -16.4375 -1 C-11.21545452 -3.61102274 -5.26673444 -1.60510002 0 0 Z " fill="#1F5B81" transform="translate(176.4375,94)"/>
<path d="M0 0 C-0.99 0.33 -1.98 0.66 -3 1 C-3.33 1.66 -3.66 2.32 -4 3 C-4.33 3.33 -4.66 3.66 -5 4 C-3.02 4.66 -1.04 5.32 1 6 C-1 8 -1 8 -3.9375 9.25 C-7.59520414 11.34011665 -8.46163868 13.1540967 -10 17 C-15.75 17.125 -15.75 17.125 -18 16 C-17.71076892 11.17948204 -16.93511783 7.97271463 -13.59375 4.359375 C-9.48950573 0.85869606 -5.35378776 -1.82434193 0 0 Z " fill="#134F72" transform="translate(171,113)"/>
<path d="M0 0 C5.21442276 -0.0494186 10.42870934 -0.08572831 15.64331055 -0.10986328 C17.41742324 -0.11992411 19.19151935 -0.13357422 20.96557617 -0.15087891 C23.51485284 -0.17512378 26.06391037 -0.18648218 28.61328125 -0.1953125 C29.40712723 -0.20563507 30.20097321 -0.21595764 31.01887512 -0.22659302 C34.88223043 -0.2273811 36.70839446 -0.19440369 40 2 C24.02562931 4.7108023 7.93807224 5.25741622 -8 2 C-8 1.67 -8 1.34 -8 1 C-5.36 1 -2.72 1 0 1 C0 0.67 0 0.34 0 0 Z " fill="#0C3E63" transform="translate(139,308)"/>
<path d="M0 0 C3.99320855 2.30377417 5.74464774 4.00309196 8.25 7.875 C9.01026048 12.53159544 7.93456699 15.07186343 5.25 18.875 C4.59 18.215 3.93 17.555 3.25 16.875 C3.91 15.885 4.57 14.895 5.25 13.875 C5.64387788 11.55112053 5.98486085 9.21706251 6.25 6.875 C3.28 6.875 0.31 6.875 -2.75 6.875 C-2.75 6.215 -2.75 5.555 -2.75 4.875 C-6.05 5.205 -9.35 5.535 -12.75 5.875 C-12.42 5.215 -12.09 4.555 -11.75 3.875 C-13.73 3.215 -15.71 2.555 -17.75 1.875 C-11.85491087 -2.05505942 -6.76402624 -2.02920787 0 0 Z " fill="#E8EBF6" transform="translate(184.75,120.125)"/>
<path d="M0 0 C1.30066406 0.00064453 2.60132813 0.00128906 3.94140625 0.00195312 C10.25609858 0.0309196 16.38451033 0.20008075 22.625 1.1875 C22.625 1.5175 22.625 1.8475 22.625 2.1875 C12.725 2.1875 2.825 2.1875 -7.375 2.1875 C2.61367106 3.85816815 2.61367106 3.85816815 12.625 5.1875 C12.295 6.1775 11.965 7.1675 11.625 8.1875 C9.315 8.1875 7.005 8.1875 4.625 8.1875 C4.625 7.5275 4.625 6.8675 4.625 6.1875 C-0.655 6.1875 -5.935 6.1875 -11.375 6.1875 C-11.375 4.8675 -11.375 3.5475 -11.375 2.1875 C-17.315 2.5175 -23.255 2.8475 -29.375 3.1875 C-29.375 2.8575 -29.375 2.5275 -29.375 2.1875 C-19.4868134 0.49798893 -10.03485234 -0.09619687 0 0 Z " fill="#CEE2EF" transform="translate(155.375,3.8125)"/>
<path d="M0 0 C-0.33 1.32 -0.66 2.64 -1 4 C-11.5479825 8.28154406 -22.56863225 7.11332105 -33.6875 6.6875 C-35.66075899 6.62412881 -37.63406706 6.56226688 -39.60742188 6.50195312 C-44.40569109 6.35204339 -49.20283296 6.18167954 -54 6 C-54 5.67 -54 5.34 -54 5 C-53.22624023 4.9906543 -52.45248047 4.98130859 -51.65527344 4.97167969 C-37.06348297 4.75118152 -23.08593314 4.22787946 -8.84375 0.83984375 C-5.70914945 0.15494627 -3.1762978 -0.19536752 0 0 Z " fill="#09476B" transform="translate(198,302)"/>
<path d="M0 0 C0.61875 0.33 1.2375 0.66 1.875 1 C-1.50710214 2.12736738 -3.7325069 1.63237078 -7.1953125 1.125 C-9.67323809 0.9644866 -11.05091649 1.69409557 -13.125 3 C-14.115 3 -15.105 3 -16.125 3 C-16.125 3.66 -16.125 4.32 -16.125 5 C-17.115 5.33 -18.105 5.66 -19.125 6 C-20.26852916 8.28705831 -20.22834439 9.59264762 -20.1875 12.125 C-20.166875 13.40375 -20.14625 14.6825 -20.125 16 C-18.475 16.33 -16.825 16.66 -15.125 17 C-15.125 17.66 -15.125 18.32 -15.125 19 C-14.465 19.33 -13.805 19.66 -13.125 20 C-12.795 20.99 -12.465 21.98 -12.125 23 C-17.10425758 21.72623643 -19.95026467 20.08180257 -23.125 16 C-24.19414842 12.25798051 -24.50084888 10.05237687 -23.1875 6.375 C-16.80405722 -0.97563107 -9.2937063 -2.97398602 0 0 Z " fill="#C8DFEF" transform="translate(129.125,121)"/>
<path d="M0 0 C1.56621094 0.32484375 1.56621094 0.32484375 3.1640625 0.65625 C20.56047859 4.03727104 37.77471182 4.50755205 55 0 C55.495 0.99 55.495 0.99 56 2 C53.2543993 4.7456007 51.39105698 4.36189557 47.5625 4.5625 C42.69675268 4.82618357 42.69675268 4.82618357 38 6 C25.9482627 6.71380813 13.96354415 5.29989672 2 4 C2 3.34 2 2.68 2 2 C1.34 2 0.68 2 0 2 C0 1.34 0 0.68 0 0 Z " fill="#E2EBFD" transform="translate(134,232)"/>
<path d="M0 0 C1.01578125 0.54269531 2.0315625 1.08539063 3.078125 1.64453125 C13.82216542 7.27204998 23.84531413 10.8312802 36 12 C35.67 12.66 35.34 13.32 35 14 C32.12890625 14.34375 32.12890625 14.34375 28.5625 14.5 C23.736478 14.44960594 23.736478 14.44960594 20 17 C19.34 16.67 18.68 16.34 18 16 C18 14.68 18 13.36 18 12 C16.7934375 11.690625 16.7934375 11.690625 15.5625 11.375 C10.88169386 9.56837307 7.08972195 6.86670034 3 4 C2.01 3.34 1.02 2.68 0 2 C0 1.34 0 0.68 0 0 Z " fill="#DDEAF9" transform="translate(100,159)"/>
<path d="M0 0 C0.33 0 0.66 0 1 0 C1.18175781 1.16015625 1.36351563 2.3203125 1.55078125 3.515625 C2.8355182 11.55795749 4.21635785 19.48258464 6.3046875 27.36328125 C7.32114779 31.21783572 8.15597337 35.10449246 9 39 C6.43470546 37.71735273 6.33500137 36.77227651 5.375 34.125 C5.11460937 33.42632812 4.85421875 32.72765625 4.5859375 32.0078125 C4 30 4 30 4 27 C3.34 27 2.68 27 2 27 C1.67 28.32 1.34 29.64 1 31 C0.67 31 0.34 31 0 31 C0 20.77 0 10.54 0 0 Z " fill="#010A13" transform="translate(0,170)"/>
<path d="M0 0 C2.64861375 2.64861375 2.6383494 4.29634932 3 8 C2.81356615 10.38311102 2.53644404 12.7602138 2.1875 15.125 C1.89939453 17.08373047 1.89939453 17.08373047 1.60546875 19.08203125 C1.40566406 20.37496094 1.20585937 21.66789062 1 23 C0.83113281 24.17949219 0.66226562 25.35898438 0.48828125 26.57421875 C-0.74351918 34.74351918 -0.74351918 34.74351918 -3 37 C-3.99 37 -4.98 37 -6 37 C-5.60167969 35.25589844 -5.60167969 35.25589844 -5.1953125 33.4765625 C-2.71891717 22.3503383 -1.03052655 11.34935158 0 0 Z " fill="#134F72" transform="translate(305,163)"/>
<path d="M0 0 C8.58667985 0.18666695 16.22479339 4.92438813 22.1875 10.875 C23.1387022 11.9041696 24.08204852 12.94106621 25 14 C22.35261084 15.4606285 21.10551666 16 18 16 C17.67 13.69 17.34 11.38 17 9 C14.03 8.505 14.03 8.505 11 8 C10.67 7.01 10.34 6.02 10 5 C6.7 4.34 3.4 3.68 0 3 C-0.33 3.66 -0.66 4.32 -1 5 C-1 1 -1 1 0 0 Z " fill="#154E75" transform="translate(182,86)"/>
<path d="M0 0 C0.6875 1.8125 0.6875 1.8125 1 4 C0.0246803 5.02408568 -0.98198643 6.01834406 -2 7 C-3.14472883 9.28945765 -4.05554302 11.61637049 -5 14 C-5.66 13.67 -6.32 13.34 -7 13 C-6.67 11.68 -6.34 10.36 -6 9 C-11.30094216 7.19695845 -16.60308488 5.49276376 -22 4 C-22 3.67 -22 3.34 -22 3 C-20.91460937 2.95101562 -19.82921875 2.90203125 -18.7109375 2.8515625 C-17.26560216 2.77648014 -15.82029081 2.70093472 -14.375 2.625 C-13.66214844 2.5940625 -12.94929687 2.563125 -12.21484375 2.53125 C-7.82847392 2.28979845 -4.1405166 1.60657269 0 0 Z " fill="#E8EAF5" transform="translate(143,157)"/>
<path d="M0 0 C3.94111295 3.7299819 6.88885285 7.92008765 10 12.34375 C11.92220118 15.03162743 11.92220118 15.03162743 14.25 17.21875 C16 19 16 19 16 21 C16.99 21.33 17.98 21.66 19 22 C20.82421875 24.06640625 20.82421875 24.06640625 22.6875 26.5625 C23.31011719 27.38878906 23.93273437 28.21507812 24.57421875 29.06640625 C25.04472656 29.70449219 25.51523437 30.34257812 26 31 C25.34 31.33 24.68 31.66 24 32 C23.60167969 31.52949219 23.20335938 31.05898438 22.79296875 30.57421875 C21.99826172 29.64029297 21.99826172 29.64029297 21.1875 28.6875 C20.66542969 28.07261719 20.14335938 27.45773437 19.60546875 26.82421875 C18.03698755 24.9856727 18.03698755 24.9856727 16.30078125 23.39453125 C15 22 15 22 15 20 C11.45481116 21.39759905 11.45481116 21.39759905 8 23 C8.185625 21.9275 8.37125 20.855 8.5625 19.75 C9.1347683 15.70678434 9.1347683 15.70678434 8 12 C6.0162233 10.71563266 6.0162233 10.71563266 4 10 C4 9.34 4 8.68 4 8 C3.01 7.67 2.02 7.34 1 7 C0.67 4.69 0.34 2.38 0 0 Z " fill="#010819" transform="translate(24,240)"/>
<path d="M0 0 C2.31 0.33 4.62 0.66 7 1 C7.75 3.125 7.75 3.125 8 6 C5.42623426 10.85055852 2.26947338 14.92844075 -3.09765625 16.6875 C-5.05114503 17.18362413 -7.02493345 17.59829155 -9 18 C-9 16.35 -9 14.7 -9 13 C-7.948125 13.103125 -6.89625 13.20625 -5.8125 13.3125 C-1.07889834 12.92449986 -0.00836452 11.52408415 3 8 C3.66 7.67 4.32 7.34 5 7 C4.34 5.68 3.68 4.36 3 3 C1.35 3.66 -0.3 4.32 -2 5 C-1.34 3.35 -0.68 1.7 0 0 Z " fill="#0A4A71" transform="translate(137,133)"/>
<path d="M0 0 C0.65742188 0.13277344 1.31484375 0.26554688 1.9921875 0.40234375 C9.18683932 1.7379363 16.19751575 2.33175555 23.50341797 2.39428711 C29.01158474 2.56118273 33.40526349 3.87225767 38 7 C38.495 7.99 38.495 7.99 39 9 C37.68 9 36.36 9 35 9 C35 8.34 35 7.68 35 7 C28.46976892 5.92641581 21.99054405 5.68459874 15.3828125 5.48242188 C10.28635544 5.27716943 5.77378767 4.87269596 1 3 C0.67 2.01 0.34 1.02 0 0 Z " fill="#D6EBFA" transform="translate(168,150)"/>
<path d="M0 0 C-0.495 0.474375 -0.99 0.94875 -1.5 1.4375 C-3.11542197 2.75923698 -3.11542197 2.75923698 -3 4 C-3.94359375 4.18175781 -4.8871875 4.36351562 -5.859375 4.55078125 C-13.97360072 6.13940978 -21.99929143 7.89925529 -30 10 C-30 9.34 -30 8.68 -30 8 C-20.51211367 2.68930256 -10.96732036 -0.63273002 0 0 Z " fill="#105078" transform="translate(136,2)"/>
<path d="M0 0 C5.19789694 -0.3778613 7.92894276 1.29712192 12.10546875 4.19921875 C14.163284 6.15520397 14.68440661 7.10419618 15.0625 9.875 C15.041875 10.90625 15.02125 11.9375 15 13 C13.35 12.67 11.7 12.34 10 12 C10 11.34 10 10.68 10 10 C7.03 9.505 7.03 9.505 4 9 C4 8.34 4 7.68 4 7 C3.34 7 2.68 7 2 7 C2 5.02 2 3.04 2 1 C1.34 0.67 0.68 0.34 0 0 Z " fill="#09507D" transform="translate(99,163)"/>
<path d="M0 0 C-0.6953125 1.9296875 -0.6953125 1.9296875 -2 4 C-4.2421875 4.7578125 -4.2421875 4.7578125 -6.875 5.125 C-10.50039351 5.62257901 -10.50039351 5.62257901 -13.83154297 7.01855469 C-16.45205742 8.20460153 -18.33451482 8.22866843 -21.203125 8.1953125 C-22.1828125 8.18886719 -23.1625 8.18242187 -24.171875 8.17578125 C-25.18765625 8.15902344 -26.2034375 8.14226562 -27.25 8.125 C-28.28125 8.11597656 -29.3125 8.10695313 -30.375 8.09765625 C-32.91690287 8.07412011 -35.4583328 8.04124023 -38 8 C-38 7.67 -38 7.34 -38 7 C-37.11030518 6.89510254 -37.11030518 6.89510254 -36.20263672 6.78808594 C-25.36980706 5.48403716 -14.9056531 4.09785811 -4.484375 0.76953125 C-2 0 -2 0 0 0 Z " fill="#010B1C" transform="translate(202,304)"/>
<path d="M0 0 C1.59521484 0.13148438 1.59521484 0.13148438 3.22265625 0.265625 C5.9375 0.75 5.9375 0.75 7.9375 2.75 C3.0248472 4.38755093 -2.04366609 3.9345573 -7.1875 3.9375 C-8.2909375 3.94974609 -9.394375 3.96199219 -10.53125 3.97460938 C-17.03661704 3.98619851 -22.77436703 3.43170998 -29.0625 1.75 C-29.0625 1.42 -29.0625 1.09 -29.0625 0.75 C-23.00754704 0.63405409 -17.19058701 0.85990717 -11.19140625 1.7265625 C-7.04427952 1.77221894 -4.70875439 -0.4348303 0 0 Z " fill="#DEE8F9" transform="translate(169.0625,227.25)"/>
<path d="M0 0 C0.33 0 0.66 0 1 0 C1.1675201 17.6268367 -0.09188374 33.78611116 -4 51 C-4.33 51 -4.66 51 -5 51 C-4.49794914 46.42677309 -3.98689966 41.85590446 -3.4296875 37.2890625 C-3.33816406 36.51949219 -3.24664062 35.74992187 -3.15234375 34.95703125 C-2.96458953 33.37830918 -2.77173076 31.80018724 -2.57421875 30.22265625 C-2.17157298 26.77390767 -1.88819627 24.3354112 -3 21 C-3.03954234 18.66700175 -3.04401732 16.33291811 -3 14 C-2.34 14.66 -1.68 15.32 -1 16 C-0.67 10.72 -0.34 5.44 0 0 Z " fill="#083D62" transform="translate(309,144)"/>
<path d="M0 0 C1.98 0.495 1.98 0.495 4 1 C4 1.66 4 2.32 4 3 C5.134375 3.144375 6.26875 3.28875 7.4375 3.4375 C11 4 11 4 12 5 C13.85174706 5.15786308 15.7090911 5.25107356 17.56640625 5.31640625 C19.2534668 5.37924805 19.2534668 5.37924805 20.97460938 5.44335938 C22.75061523 5.50233398 22.75061523 5.50233398 24.5625 5.5625 C25.75037109 5.60568359 26.93824219 5.64886719 28.16210938 5.69335938 C31.10794784 5.79983546 34.0538743 5.90184841 37 6 C37 6.99 37 7.98 37 9 C23.81067123 8.61865351 11.34094613 8.17379048 -1 3 C-0.67 2.01 -0.34 1.02 0 0 Z " fill="#1C5275" transform="translate(163,145)"/>
<path d="M0 0 C0.66 0 1.32 0 2 0 C2.02892857 3.95831809 2.04677427 7.91660917 2.0625 11.875 C2.07087891 13.00292969 2.07925781 14.13085938 2.08789062 15.29296875 C2.09111328 16.36933594 2.09433594 17.44570312 2.09765625 18.5546875 C2.10289307 19.54968262 2.10812988 20.54467773 2.11352539 21.56982422 C2 24 2 24 1 26 C0.34 26 -0.32 26 -1 26 C-1.02892857 22.04168191 -1.04677427 18.08339083 -1.0625 14.125 C-1.07087891 12.99707031 -1.07925781 11.86914062 -1.08789062 10.70703125 C-1.09111328 9.63066406 -1.09433594 8.55429688 -1.09765625 7.4453125 C-1.10289307 6.45031738 -1.10812988 5.45532227 -1.11352539 4.43017578 C-1 2 -1 2 0 0 Z " fill="#024975" transform="translate(1,144)"/>
<path d="M0 0 C6.87441016 0.79255942 13.67801609 1.9078221 20.5 3.0625 C21.60859375 3.24876953 22.7171875 3.43503906 23.859375 3.62695312 C26.57317019 4.08315145 29.2866995 4.54087025 32 5 C32 5.33 32 5.66 32 6 C28.4375692 6.05827558 24.87526181 6.09368885 21.3125 6.125 C19.80139648 6.15013672 19.80139648 6.15013672 18.25976562 6.17578125 C17.28330078 6.18222656 16.30683594 6.18867188 15.30078125 6.1953125 C14.40528564 6.20578613 13.50979004 6.21625977 12.5871582 6.22705078 C9.73831743 5.97703456 7.59105457 5.18016512 5 4 C5 3.34 5 2.68 5 2 C3.35 2 1.7 2 0 2 C0 1.34 0 0.68 0 0 Z " fill="#00081C" transform="translate(112,306)"/>
<path d="M0 0 C0.66 0 1.32 0 2 0 C1.67 1.32 1.34 2.64 1 4 C3.64 4.33 6.28 4.66 9 5 C9 6.32 9 7.64 9 9 C10.32 8.67 11.64 8.34 13 8 C13 6.35 13 4.7 13 3 C14.65 3.66 16.3 4.32 18 5 C18.042721 6.66611905 18.04063832 8.33382885 18 10 C17 11 17 11 13.90234375 11.3125 C9.18747672 10.93493307 6.49563711 9.46393351 2.5625 7 C1.92634766 6.6184375 1.29019531 6.236875 0.63476562 5.84375 C-0.91844992 4.90948501 -2.46044863 3.95661444 -4 3 C-3.34 2.67 -2.68 2.34 -2 2 C-1.34 2.33 -0.68 2.66 0 3 C0 2.01 0 1.02 0 0 Z " fill="#1F557A" transform="translate(100,166)"/>
<path d="M0 0 C-0.98828125 1.51171875 -0.98828125 1.51171875 -3 3 C-5.83367294 3.10978628 -8.38249818 3.05127488 -11.1875 2.8125 C-11.91775391 2.76802734 -12.64800781 2.72355469 -13.40039062 2.67773438 C-18.45841469 2.31484691 -23.11263781 1.34499322 -28 0 C-28 -0.33 -28 -0.66 -28 -1 C-18.38122875 -2.92375425 -9.58962559 -1.50848043 0 0 Z " fill="#104A6B" transform="translate(144,307)"/>
<path d="M0 0 C0.66 0.66 1.32 1.32 2 2 C0.02 2.99 0.02 2.99 -2 4 C-2 4.99 -2 5.98 -2 7 C-3.98 7.66 -5.96 8.32 -8 9 C-7.67 9.66 -7.34 10.32 -7 11 C-7.66 11 -8.32 11 -9 11 C-9.33 11.99 -9.66 12.98 -10 14 C-10.66 13.67 -11.32 13.34 -12 13 C-14.00847365 13.98287008 -16.00819591 14.98377342 -18 16 C-18.99 16 -19.98 16 -21 16 C-6.76470588 3.38235294 -6.76470588 3.38235294 0 0 Z " fill="#D8E6F5" transform="translate(73,28)"/>
<path d="M0 0 C2.26989784 1.13494892 4.49419277 2.28249804 6.69921875 3.54296875 C11.41008081 5.62243804 15.76853589 5.46373255 20.85546875 5.59375 C24 6 24 6 25.92578125 7.53125 C26.28027344 8.0159375 26.63476562 8.500625 27 9 C25.68 9.33 24.36 9.66 23 10 C23.66 10.33 24.32 10.66 25 11 C24.34 11 23.68 11 23 11 C23 11.66 23 12.32 23 13 C20.69 13 18.38 13 16 13 C15.67 12.01 15.34 11.02 15 10 C15.99 10 16.98 10 18 10 C18 9.34 18 8.68 18 8 C17.11957031 7.92523438 16.23914063 7.85046875 15.33203125 7.7734375 C4.66450784 6.56579334 4.66450784 6.56579334 1.6875 2.875 C0.8521875 1.451875 0.8521875 1.451875 0 0 Z " fill="#024A77" transform="translate(105,138)"/>
<path d="M0 0 C0.68642578 -0.00902344 1.37285156 -0.01804687 2.08007812 -0.02734375 C5.73489983 -0.00548041 7.25051403 0.16700936 10.375 2.25 C3.51516191 3.30728087 -3.19283224 3.36639843 -10.125 3.3125 C-11.23359375 3.30798828 -12.3421875 3.30347656 -13.484375 3.29882812 C-16.19797399 3.28713158 -18.91145761 3.27074086 -21.625 3.25 C-21.625 2.92 -21.625 2.59 -21.625 2.25 C-14.41042719 0.8663833 -7.33872568 0.04028578 0 0 Z " fill="#0B4971" transform="translate(168.625,307.75)"/>
<path d="M0 0 C0.66 0 1.32 0 2 0 C0.07443364 6.85618326 -2.2472483 13.43252132 -5 20 C-5.66 20 -6.32 20 -7 20 C-6.61182186 13.46789888 -5.71956543 7.98304396 -3 2 C-2.34 1.67 -1.68 1.34 -1 1 C-0.67 0.67 -0.34 0.34 0 0 Z " fill="#0D4B6B" transform="translate(302,198)"/>
<path d="M0 0 C1.77226453 0.28284018 3.542788 0.57660498 5.3125 0.875 C6.29863281 1.03742188 7.28476563 1.19984375 8.30078125 1.3671875 C11 2 11 2 14 4 C13.0821875 4.03738281 12.164375 4.07476562 11.21875 4.11328125 C4.21225347 4.48862928 -1.60688626 5.05916768 -8 8 C-8 9.98 -8 11.96 -8 14 C-9.5 12.75 -9.5 12.75 -11 11 C-11 9.68 -11 8.36 -11 7 C-10.34 7 -9.68 7 -9 7 C-8.67 6.01 -8.34 5.02 -8 4 C-6.15234375 3.26953125 -6.15234375 3.26953125 -3.9375 2.8125 C-3.20402344 2.65394531 -2.47054687 2.49539062 -1.71484375 2.33203125 C-0.86599609 2.16767578 -0.86599609 2.16767578 0 2 C0 1.34 0 0.68 0 0 Z " fill="#D6EDF9" transform="translate(162,99)"/>
<path d="M0 0 C8.67458432 -0.19714964 8.67458432 -0.19714964 11.9375 2.75 C12.618125 3.4925 13.29875 4.235 14 5 C14.9075 5.9075 15.815 6.815 16.75 7.75 C17.4925 8.4925 18.235 9.235 19 10 C18.01 11.485 18.01 11.485 17 13 C16.35933594 12.46890625 15.71867188 11.9378125 15.05859375 11.390625 C10.21803326 7.43738036 5.5437579 3.89239543 0 1 C0 0.67 0 0.34 0 0 Z " fill="#175375" transform="translate(232,25)"/>
<path d="M0 0 C0 3 0 3 -1.9375 5 C-5.71364873 7.46605632 -9.56509079 9.11135714 -14 10 C-14.99 9.67 -15.98 9.34 -17 9 C-17 8.01 -17 7.02 -17 6 C-11.39 4.02 -5.78 2.04 0 0 Z " fill="#124F76" transform="translate(214,295)"/>
<path d="M0 0 C1.4370809 -0.05422947 2.87475462 -0.09289723 4.3125 -0.125 C5.11300781 -0.14820313 5.91351563 -0.17140625 6.73828125 -0.1953125 C9 0 9 0 12 2 C11.01 3.485 11.01 3.485 10 5 C11.32 5.66 12.64 6.32 14 7 C14 7.66 14 8.32 14 9 C10.14974121 8.39644592 7.13898841 7.23227397 3.6875 5.4375 C2.80449219 4.98246094 1.92148438 4.52742187 1.01171875 4.05859375 C0.34785156 3.70925781 -0.31601563 3.35992187 -1 3 C-0.67 2.01 -0.34 1.02 0 0 Z " fill="#DDE7F2" transform="translate(100,210)"/>
<path d="M0 0 C1.32 1.32 2.64 2.64 4 4 C1.03 6.31 -1.94 8.62 -5 11 C-6.65 9.68 -8.3 8.36 -10 7 C-6.7 4.69 -3.4 2.38 0 0 Z " fill="#115575" transform="translate(247,192)"/>
<path d="M0 0 C3.89050306 1.27925016 5.80041645 2.50879978 8.125 5.875 C8.84042969 6.89207031 8.84042969 6.89207031 9.5703125 7.9296875 C10.04210937 8.61289062 10.51390625 9.29609375 11 10 C11.49757813 10.64066406 11.99515625 11.28132813 12.5078125 11.94140625 C14.16426902 14.22662244 15.46235002 16.55158253 16.75 19.0625 C17.19859375 19.91972656 17.6471875 20.77695313 18.109375 21.66015625 C19 24 19 24 18 27 C16 23.66666667 14 20.33333333 12 17 C11.43925781 16.10667969 10.87851562 15.21335937 10.30078125 14.29296875 C9 12 9 12 9 10 C8.01 9.67 7.02 9.34 6 9 C4.39453125 6.93359375 4.39453125 6.93359375 2.8125 4.4375 C2.28269531 3.61121094 1.75289063 2.78492188 1.20703125 1.93359375 C0.80871094 1.29550781 0.41039062 0.65742187 0 0 Z " fill="#000D1E" transform="translate(272,54)"/>
<path d="M0 0 C0.99 0 1.98 0 3 0 C4.66666667 0 6.33333333 0 8 0 C8 0.99 8 1.98 8 3 C6.68 3.33 5.36 3.66 4 4 C4.99 4.99 5.98 5.98 7 7 C1.72 5.68 -3.56 4.36 -9 3 C-6.22043884 -1.16934174 -4.49497108 -1.26421062 0 0 Z " fill="#E1E8F6" transform="translate(115,297)"/>
<path d="M0 0 C6.0546875 -0.1953125 6.0546875 -0.1953125 8 0 C8.66 0.66 9.32 1.32 10 2 C9.46428571 5.53571429 9.46428571 5.53571429 8 7 C2.26388889 7.27314815 2.26388889 7.27314815 0 7 C-0.66 6.34 -1.32 5.68 -2 5 C-0.68 4.01 0.64 3.02 2 2 C1.34 1.34 0.68 0.68 0 0 Z " fill="#0E4D74" transform="translate(128,164)"/>
<path d="M0 0 C-0.66 0.33 -1.32 0.66 -2 1 C-2 1.66 -2 2.32 -2 3 C-14.54 2.67 -27.08 2.34 -40 2 C-40 1.67 -40 1.34 -40 1 C-38.73724243 0.96241577 -38.73724243 0.96241577 -37.44897461 0.92407227 C-34.29733856 0.82839721 -31.14583774 0.72919924 -27.99438477 0.62768555 C-26.6357042 0.58462706 -25.27697959 0.54293435 -23.91821289 0.50268555 C-21.95447697 0.44427107 -19.99090636 0.38038197 -18.02734375 0.31640625 C-16.84906006 0.27974854 -15.67077637 0.24309082 -14.45678711 0.20532227 C-10.93464013 0.04471758 -10.93464013 0.04471758 -7.21313477 -0.54711914 C-4.31448418 -0.95567448 -2.70603524 -0.97417269 0 0 Z " fill="#366C8F" transform="translate(184,306)"/>
<path d="M0 0 C1.97929118 2.96893676 3.02741785 5.51620619 4.1875 8.875 C4.55230469 9.90367188 4.91710937 10.93234375 5.29296875 11.9921875 C6.02892175 15.12303729 5.88524323 16.94393738 5 20 C4.67 19.01 4.34 18.02 4 17 C3.34 17 2.68 17 2 17 C-0.81115003 10.81546992 -1.27947184 6.65941972 0 0 Z " fill="#0D456A" transform="translate(298,97)"/>
<path d="M0 0 C6.40900977 4.56507679 12.2190161 9.66917468 18 15 C16.68 15.33 15.36 15.66 14 16 C13.67 14.68 13.34 13.36 13 12 C10.69 12 8.38 12 6 12 C5.731875 10.865625 5.46375 9.73125 5.1875 8.5625 C4.5996875 6.7990625 4.5996875 6.7990625 4 5 C3.01 4.67 2.02 4.34 1 4 C0.3125 1.9375 0.3125 1.9375 0 0 Z " fill="#D9E5F6" transform="translate(245,34)"/>
<path d="M0 0 C0.66 0.66 1.32 1.32 2 2 C1.319375 2.495 0.63875 2.99 -0.0625 3.5 C-3.79601262 6.67745755 -6.85056529 10.25511407 -10 14 C-10.51433594 14.61101563 -11.02867188 15.22203125 -11.55859375 15.8515625 C-12.7113735 17.22967314 -13.85661797 18.61408239 -15 20 C-15 16.80389448 -14.45328458 15.58282374 -13 12.8125 C-12.62875 12.09707031 -12.2575 11.38164063 -11.875 10.64453125 C-11.58625 10.10183594 -11.2975 9.55914062 -11 9 C-10.34 9 -9.68 9 -9 9 C-9 8.34 -9 7.68 -9 7 C-8.34 7 -7.68 7 -7 7 C-7 6.34 -7 5.68 -7 5 C-4 3 -4 3 -1 3 C-0.67 2.01 -0.34 1.02 0 0 Z " fill="#000817" transform="translate(52,36)"/>
<path d="M0 0 C1.125 3.75 1.125 3.75 0 6 C-2.50390625 6.6328125 -2.50390625 6.6328125 -5.5625 7.125 C-7.08037109 7.37636719 -7.08037109 7.37636719 -8.62890625 7.6328125 C-9.80259766 7.81457031 -9.80259766 7.81457031 -11 8 C-11.33 7.01 -11.66 6.02 -12 5 C-12.66 4.34 -13.32 3.68 -14 3 C-12.0424015 2.49713066 -10.08389623 1.9977901 -8.125 1.5 C-7.03445312 1.2215625 -5.94390625 0.943125 -4.8203125 0.65625 C-2 0 -2 0 0 0 Z " fill="#1C597C" transform="translate(192,226)"/>
<path d="M0 0 C0.66 0.33 1.32 0.66 2 1 C1.01 2.485 1.01 2.485 0 4 C0.33 4.33 0.66 4.66 1 5 C0.01 6.98 -0.98 8.96 -2 11 C-3.093125 10.814375 -4.18625 10.62875 -5.3125 10.4375 C-8.93624133 9.7421932 -8.93624133 9.7421932 -12 11 C-12.66 10.67 -13.32 10.34 -14 10 C-13.67 7.69 -13.34 5.38 -13 3 C-12.67 4.32 -12.34 5.64 -12 7 C-9.36 7 -6.72 7 -4 7 C-3.525625 6.030625 -3.05125 5.06125 -2.5625 4.0625 C-1 1 -1 1 0 0 Z " fill="#C6E0F1" transform="translate(165,122)"/>
<path d="M0 0 C2.3125 0.125 2.3125 0.125 5 1 C8.25908621 5.65583744 8.64465177 10.48597576 9 16 C5.79695512 14.39847756 4.87921189 11.10625869 3.375 8 C3.05015625 7.34515625 2.7253125 6.6903125 2.390625 6.015625 C0 1.15401786 0 1.15401786 0 0 Z " fill="#124C74" transform="translate(14,220)"/>
<path d="M0 0 C0.66 0.33 1.32 0.66 2 1 C-0.21800948 7.53080569 -0.21800948 7.53080569 -4.125 9.875 C-5.548125 10.431875 -5.548125 10.431875 -7 11 C-7.33 11.33 -7.66 11.66 -8 12 C-9.80927281 12.12487758 -11.62396107 12.17570846 -13.4375 12.1875 C-14.42621094 12.20167969 -15.41492188 12.21585938 -16.43359375 12.23046875 C-19 12 -19 12 -21 10 C-20.11957031 9.89042969 -19.23914063 9.78085938 -18.33203125 9.66796875 C-17.17058594 9.50941406 -16.00914062 9.35085937 -14.8125 9.1875 C-13.66394531 9.03667969 -12.51539063 8.88585937 -11.33203125 8.73046875 C-6.64168001 7.70222059 -3.88406729 6.31085839 -1.1875 2.3125 C-0.795625 1.549375 -0.40375 0.78625 0 0 Z " fill="#194F74" transform="translate(193,133)"/>
<path d="M0 0 C1.46224799 0.42423244 2.91973412 0.86490245 4.375 1.3125 C5.18710938 1.55613281 5.99921875 1.79976562 6.8359375 2.05078125 C9 3 9 3 11 6 C9.35 9.3 7.7 12.6 6 16 C5.34 15.34 4.68 14.68 4 14 C4.66 14 5.32 14 6 14 C6 11.36 6 8.72 6 6 C3.03 5.505 3.03 5.505 0 5 C0 3.35 0 1.7 0 0 Z " fill="#1B5076" transform="translate(224,137)"/>
<path d="M0 0 C0.19851562 0.58910156 0.39703125 1.17820312 0.6015625 1.78515625 C3.11947441 5.77302232 7.70278777 7.11049834 11.8359375 9.12109375 C15.10307132 11.06120655 16.84551532 12.90624491 19 16 C15.57265183 14.68037931 12.32234322 13.18914467 9.0625 11.5 C5.44066236 9.66471904 1.91295102 8.13269635 -2 7 C-1.34 6.34 -0.68 5.68 0 5 C0.16687448 2.41645782 0.16687448 2.41645782 0 0 Z " fill="#B7D8EC" transform="translate(179,88)"/>
<path d="M0 0 C5.4556837 2.12405077 10.81634671 4.27176143 16 7 C15.34 7.66 14.68 8.32 14 9 C13.40832031 8.79503906 12.81664062 8.59007812 12.20703125 8.37890625 C4.77199881 5.82388198 4.77199881 5.82388198 -3 5 C-2.67 4.34 -2.34 3.68 -2 3 C-1.34 3 -0.68 3 0 3 C0 2.01 0 1.02 0 0 Z " fill="#DCECF8" transform="translate(211,15)"/>
<path d="M0 0 C-0.99 0.33 -1.98 0.66 -3 1 C-3.33 1.66 -3.66 2.32 -4 3 C-4.33 3.33 -4.66 3.66 -5 4 C-3.02 4.66 -1.04 5.32 1 6 C-1.14553974 8.14553974 -2.02602384 8.72963853 -5 9 C-6.75 7.5625 -6.75 7.5625 -8 6 C-8 6.66 -8 7.32 -8 8 C-9.32 8.33 -10.64 8.66 -12 9 C-11.814375 8.38125 -11.62875 7.7625 -11.4375 7.125 C-10.76313824 4.95839822 -10.76313824 4.95839822 -12 3 C-10.75823305 2.29773859 -9.50614401 1.61370891 -8.25 0.9375 C-7.20585937 0.36322266 -7.20585937 0.36322266 -6.140625 -0.22265625 C-3.63859372 -1.1312406 -2.4667645 -0.88336837 0 0 Z " fill="#0E5482" transform="translate(171,113)"/>
<path d="M0 0 C0.66 0.99 1.32 1.98 2 3 C1.125 6.6875 1.125 6.6875 0 10 C0.99 10 1.98 10 3 10 C3 10.66 3 11.32 3 12 C4.32 12.33 5.64 12.66 7 13 C6.67 14.32 6.34 15.64 6 17 C3.03 15.02 0.06 13.04 -3 11 C-2.53199289 6.94393835 -2.12046792 3.53411321 0 0 Z " fill="#1C5478" transform="translate(67,111)"/>
<path d="M0 0 C-1.7288805 1.41701589 -3.45811746 2.83359686 -5.1875 4.25 C-6.63189453 5.43335938 -6.63189453 5.43335938 -8.10546875 6.640625 C-10.72500523 8.77584772 -13.35729197 10.89356361 -16 13 C-15.34938905 11.32700041 -14.67966676 9.66140763 -14 8 C-13.731875 7.29875 -13.46375 6.5975 -13.1875 5.875 C-10.84806915 2.18116182 -4.19430562 -2.09715281 0 0 Z " fill="#0F4A6E" transform="translate(64,35)"/>
<path d="M0 0 C2.97851562 0.390625 2.97851562 0.390625 5.95703125 0.78125 C8.15471706 1.053233 8.15471706 1.053233 11 1 C11 1.99 11 2.98 11 4 C12.65 4.33 14.3 4.66 16 5 C15.34 6.32 14.68 7.64 14 9 C10.40241608 7.67726488 7.36262865 6.0805802 4.1875 3.9375 C3.39730469 3.41027344 2.60710937 2.88304687 1.79296875 2.33984375 C1.20128906 1.89769531 0.60960938 1.45554687 0 1 C0 0.67 0 0.34 0 0 Z " fill="#D7E4ED" transform="translate(64,277)"/>
<path d="M0 0 C2.16965398 3.25448097 3.36143262 6.5253585 4.625 10.1875 C4.85445312 10.84169922 5.08390625 11.49589844 5.3203125 12.16992188 C5.88395144 13.77864135 6.44247984 15.38914977 7 17 C5.68 17 4.36 17 3 17 C-0.61601216 11.42531458 -0.30720059 6.39432346 0 0 Z " fill="#1C5579" transform="translate(11,203)"/>
<path d="M0 0 C3.91939465 3.80411834 7.49102731 7.81576108 11 12 C8 13 8 13 5.5 12.5 C1.91315742 10.34789445 1.27732888 7.89921448 0 4 C0 2.68 0 1.36 0 0 Z " fill="#DCE5F5" transform="translate(263,50)"/>
<path d="M0 0 C2.475 0.99 2.475 0.99 5 2 C5 2.66 5 3.32 5 4 C5.5671875 4.28101563 6.134375 4.56203125 6.71875 4.8515625 C18.33777482 10.70086609 18.33777482 10.70086609 22 15 C18.26512223 14.5020163 16.18762365 14.12508244 13 12 C13 11.34 13 10.68 13 10 C11.02 9.34 9.04 8.68 7 8 C7 7.34 7 6.68 7 6 C6.01 5.67 5.02 5.34 4 5 C4 4.34 4 3.68 4 3 C2.68 2.67 1.36 2.34 0 2 C0 1.34 0 0.68 0 0 Z " fill="#000719" transform="translate(59,279)"/>
<path d="M0 0 C0.33 0 0.66 0 1 0 C1.08756305 3.70818297 1.14058015 7.41609763 1.1875 11.125 C1.21263672 12.17171875 1.23777344 13.2184375 1.26367188 14.296875 C1.31833491 20.05471464 1.20676341 24.13514632 -2 29 C-2.33 29 -2.66 29 -3 29 C-2.85833643 27.08302063 -2.71150416 25.16642277 -2.5625 23.25 C-2.48128906 22.18265625 -2.40007812 21.1153125 -2.31640625 20.015625 C-2 17 -2 17 -1.5 15.03125 C-0.78436946 12.12400091 -0.64634917 9.23355956 -0.4375 6.25 C-0.31181641 4.49429688 -0.31181641 4.49429688 -0.18359375 2.703125 C-0.12300781 1.81109375 -0.06242187 0.9190625 0 0 Z " fill="#000D1B" transform="translate(309,163)"/>
<path d="M0 0 C6.66666667 3.33333333 13.33333333 6.66666667 20 10 C19.67 10.33 19.34 10.66 19 11 C18.95936168 12.66617115 18.957279 14.33388095 19 16 C18.95875 15.38125 18.9175 14.7625 18.875 14.125 C18.58625 13.42375 18.2975 12.7225 18 12 C16.01017187 11.30356015 14.00705243 10.645124 12 10 C8.90557936 8.13385876 5.95813514 6.07351187 3 4 C2.01 3.34 1.02 2.68 0 2 C0 1.34 0 0.68 0 0 Z " fill="#ADDDF3" transform="translate(100,159)"/>
<path d="M0 0 C3.3 0.66 6.6 1.32 10 2 C10 2.99 10 3.98 10 5 C6.69818239 7.83012938 5.03316905 9.07653104 0.625 8.75 C-0.674375 8.37875 -0.674375 8.37875 -2 8 C-1.1875 6.0625 -1.1875 6.0625 0 4 C0.99 3.67 1.98 3.34 3 3 C2.01 2.67 1.02 2.34 0 2 C0 1.34 0 0.68 0 0 Z " fill="#16577D" transform="translate(122,161)"/>
<path d="M0 0 C0 0.66 0 1.32 0 2 C-6.435 3.98 -6.435 3.98 -13 6 C-13 6.66 -13 7.32 -13 8 C-15.64 7.67 -18.28 7.34 -21 7 C-18.32344121 3.57831861 -15.14948139 2.9318097 -11.0625 1.8125 C-9.83660156 1.46832031 -8.61070313 1.12414062 -7.34765625 0.76953125 C-4 0 -4 0 0 0 Z " fill="#D6E6F7" transform="translate(122,8)"/>
<path d="M0 0 C-0.825 0.474375 -1.65 0.94875 -2.5 1.4375 C-3.325 1.953125 -4.15 2.46875 -5 3 C-5 3.33 -5 3.66 -5 4 C-6.65 4 -8.3 4 -10 4 C-10 4.66 -10 5.32 -10 6 C-12.31 6.33 -14.62 6.66 -17 7 C-17 6.01 -17 5.02 -17 4 C-14.69 3.34 -12.38 2.68 -10 2 C-10 1.34 -10 0.68 -10 0 C-6.33694766 -0.74926071 -3.57644848 -1.2380014 0 0 Z " fill="#073D5E" transform="translate(116,6)"/>
<path d="M0 0 C0 0.66 0 1.32 0 2 C0.66 2.33 1.32 2.66 2 3 C-3.5825192 6.32575612 -7.49686791 7.46450943 -14 7 C-14 6.67 -14 6.34 -14 6 C-12.35 5.67 -10.7 5.34 -9 5 C-8.67 4.01 -8.34 3.02 -8 2 C-5.01540871 0.04457812 -3.73585209 0 0 0 Z " fill="#0C4A78" transform="translate(200,224)"/>
<path d="M0 0 C0.99 0 1.98 0 3 0 C2.85816304 1.75032844 2.71136571 3.50025534 2.5625 5.25 C2.48128906 6.22453125 2.40007812 7.1990625 2.31640625 8.203125 C2.04925416 10.56461753 1.64628032 12.71901065 1 15 C0.01 15 -0.98 15 -2 15 C-1.85879286 13.06215735 -1.71187127 11.12473045 -1.5625 9.1875 C-1.48128906 8.10855469 -1.40007812 7.02960938 -1.31640625 5.91796875 C-1 3 -1 3 0 0 Z " fill="#D4E6F6" transform="translate(300,181)"/>
<path d="M0 0 C2.64669627 2.64669627 2.64577941 4.30036273 3 8 C2.66015625 11.4296875 2.66015625 11.4296875 2.0625 14.875 C1.86785156 16.02742188 1.67320312 17.17984375 1.47265625 18.3671875 C1.31667969 19.23601562 1.16070312 20.10484375 1 21 C0.34 21 -0.32 21 -1 21 C-1.12109311 13.92278069 -0.85373239 7.02804699 0 0 Z " fill="#19557F" transform="translate(305,163)"/>
<path d="M0 0 C1.32 0.33 2.64 0.66 4 1 C-0.54431011 6.1711115 -6.15281368 9.44663108 -12 13 C-12.33 12.01 -12.66 11.02 -13 10 C-7.25 6 -7.25 6 -5 6 C-5 5.34 -5 4.68 -5 4 C-3.35 3.34 -1.7 2.68 0 2 C0 1.34 0 0.68 0 0 Z " fill="#D0E7F4" transform="translate(242,275)"/>
<path d="M0 0 C0.66 0 1.32 0 2 0 C2.05394705 2.60444348 2.09364469 5.20776998 2.125 7.8125 C2.14175781 8.55048828 2.15851563 9.28847656 2.17578125 10.04882812 C2.21074628 13.91246426 2.19397555 15.70903668 0 19 C-1.62043498 12.92336881 -1.76070375 6.05067242 0 0 Z " fill="#074A79" transform="translate(307,144)"/>
<path d="M0 0 C2.85919701 0.79422139 5.35473168 1.67736584 8 3 C8 3.66 8 4.32 8 5 C5.77058595 4.68926976 3.54147788 4.37634375 1.3125 4.0625 C0.07113281 3.88847656 -1.17023438 3.71445313 -2.44921875 3.53515625 C-5.32474548 3.10177103 -8.15644813 2.60350718 -11 2 C-7.27065049 -0.48623301 -4.31585534 -0.41608435 0 0 Z " fill="#084F72" transform="translate(176,2)"/>
<path d="M0 0 C2 3 2 3 1.75 5.3125 C0.92681845 8.26223388 0.10439681 11.14156119 -1 14 C-1.99 14.495 -1.99 14.495 -3 15 C-3.66 15.99 -4.32 16.98 -5 18 C-6.35114472 14.94255252 -5.9224598 13.77959635 -4.78515625 10.546875 C-4.22254947 9.27604557 -3.64790949 8.01048782 -3.0625 6.75 C-2.77181641 6.1003125 -2.48113281 5.450625 -2.18164062 4.78125 C-1.46471025 3.18284785 -0.73371051 1.59076946 0 0 Z " fill="#0E527D" transform="translate(295,210)"/>
<path d="M0 0 C0.66 0.66 1.32 1.32 2 2 C1.74997427 6.50046315 -0.41754304 9.41788227 -3 13 C-4.32 12.67 -5.64 12.34 -7 12 C-4.69 8.04 -2.38 4.08 0 0 Z " fill="#144C72" transform="translate(282,236)"/>
<path d="M0 0 C0.99 0.33 1.98 0.66 3 1 C1.71700242 3.86207152 0.469364 6.0245088 -2 8 C-2.99 8 -3.98 8 -5 8 C-5.33 7.34 -5.66 6.68 -6 6 C-6.99 6.495 -6.99 6.495 -8 7 C-7.67 5.35 -7.34 3.7 -7 2 C-4.69 2 -2.38 2 0 2 C0 1.34 0 0.68 0 0 Z " fill="#054B79" transform="translate(163,119)"/>
<path d="M0 0 C0.66 0 1.32 0 2 0 C2.83698386 2.45714547 3.66972424 4.91558857 4.5 7.375 C4.85771484 8.42300781 4.85771484 8.42300781 5.22265625 9.4921875 C7 14.7734375 7 14.7734375 7 17 C5.68 17.33 4.36 17.66 3 18 C2.855625 17.05125 2.71125 16.1025 2.5625 15.125 C2.17064601 12.1065506 2.17064601 12.1065506 1 10 C0.77377919 8.29636178 0.59111527 6.58671299 0.4375 4.875 C0.35371094 3.96492188 0.26992187 3.05484375 0.18359375 2.1171875 C0.12300781 1.41851562 0.06242188 0.71984375 0 0 Z " fill="#20597F" transform="translate(210,110)"/>
<path d="M0 0 C1.32 0 2.64 0 4 0 C5.512545 5.16044765 6.33500455 8.65998179 5 14 C2.81385576 11.81385576 2.31743465 10.46120051 1.375 7.5625 C1.11460937 6.78003906 0.85421875 5.99757813 0.5859375 5.19140625 C0 3 0 3 0 0 Z " fill="#E3EFFC" transform="translate(209,101)"/>
<path d="M0 0 C11.92490746 1.300899 11.92490746 1.300899 17 3 C17.33 3.66 17.66 4.32 18 5 C11.48545861 5.12527964 11.48545861 5.12527964 9.0625 4.5 C6.72390203 3.93306716 4.65273419 3.90216567 2.25 3.9375 C1.05117187 3.95103516 1.05117187 3.95103516 -0.171875 3.96484375 C-1.07679688 3.98224609 -1.07679688 3.98224609 -2 4 C-1.34 2.68 -0.68 1.36 0 0 Z " fill="#D8EBF9" transform="translate(162,89)"/>
<path d="M0 0 C6.75 -0.125 6.75 -0.125 9 1 C8.67 2.65 8.34 4.3 8 6 C5 6 5 6 2 4 C1.01 3.67 0.02 3.34 -1 3 C-0.67 2.01 -0.34 1.02 0 0 Z " fill="#16537C" transform="translate(136,151)"/>
<path d="M0 0 C1.32 0.33 2.64 0.66 4 1 C1.36 5.95 -1.28 10.9 -4 16 C-5.21660575 11.133577 -4.26803431 10.27437236 -2 6 C-1.63128912 4.34080104 -1.28718326 2.6752357 -1 1 C-0.67 0.67 -0.34 0.34 0 0 Z " fill="#1E5478" transform="translate(23,75)"/>
<path d="M0 0 C-1.39176632 0.96423026 -2.7886223 1.92111602 -4.1875 2.875 C-4.96480469 3.40867187 -5.74210937 3.94234375 -6.54296875 4.4921875 C-8.9676609 5.98015439 -11.3333499 7.02428078 -14 8 C-14 8.66 -14 9.32 -14 10 C-14.99 10.33 -15.98 10.66 -17 11 C-15.63434943 6.09722964 -13.41678305 4.58451018 -9.0625 2.125 C-8.00160156 1.50882813 -6.94070312 0.89265625 -5.84765625 0.2578125 C-3 -1 -3 -1 0 0 Z " fill="#010F1F" transform="translate(76,22)"/>
<path d="M0 0 C0.33 0 0.66 0 1 0 C1.268125 0.886875 1.53625 1.77375 1.8125 2.6875 C2.82176615 5.96356772 2.82176615 5.96356772 4.625 8.3125 C6.60249847 12.17761065 6.25063861 15.73914368 6 20 C2.13820969 14.20731454 -0.7616183 7.04496923 0 0 Z " fill="#05496D" transform="translate(5,192)"/>
<path d="M0 0 C0.928125 0.165 1.85625 0.33 2.8125 0.5 C5.95621353 1.07748388 5.95621353 1.07748388 9 1 C10.0625 2.8125 10.0625 2.8125 11 5 C10.67 5.99 10.34 6.98 10 8 C8.32819726 7.05065487 6.66266064 6.09026687 5 5.125 C4.071875 4.59132812 3.14375 4.05765625 2.1875 3.5078125 C1.465625 3.01023438 0.74375 2.51265625 0 2 C0 1.34 0 0.68 0 0 Z " fill="#E6E7F7" transform="translate(69,193)"/>
<path d="M0 0 C6.93 0 13.86 0 21 0 C17.9360775 3.0639225 14.83504896 3.15056975 10.625 3.1875 C6.75067249 3.15548076 3.61318977 2.48233426 0 1 C0 0.67 0 0.34 0 0 Z " fill="#D0E8F9" transform="translate(166,140)"/>
<path d="M0 0 C0.33 0 0.66 0 1 0 C1.36206897 6.27586207 1.36206897 6.27586207 -0.1875 9.375 C-2.41017339 11.36774166 -4.06832781 11.68306247 -7 12 C-5.48109469 7.44328408 -3.04597738 3.68276708 0 0 Z " fill="#0D4866" transform="translate(29,64)"/>
<path d="M0 0 C0.99 0.33 1.98 0.66 3 1 C3.33 1.99 3.66 2.98 4 4 C5.65 3.67 7.3 3.34 9 3 C9 5.66666667 9 8.33333333 9 11 C8.34 11.66 7.68 12.32 7 13 C5.83072457 11.02237345 4.66464427 9.04285742 3.5 7.0625 C2.8503125 5.96035156 2.200625 4.85820312 1.53125 3.72265625 C0 1 0 1 0 0 Z " fill="#DCE6F8" transform="translate(23,229)"/>
<path d="M0 0 C1.45823212 -0.0270043 2.91660675 -0.04639787 4.375 -0.0625 C5.18710938 -0.07410156 5.99921875 -0.08570313 6.8359375 -0.09765625 C9 0 9 0 11 1 C11 1.99 11 2.98 11 4 C7.04 4 3.08 4 -1 4 C-0.67 2.68 -0.34 1.36 0 0 Z " fill="#034C7F" transform="translate(149,231)"/>
<path d="M0 0 C0.79921875 0.00902344 1.5984375 0.01804687 2.421875 0.02734375 C3.02515625 0.03894531 3.6284375 0.05054687 4.25 0.0625 C4.25 0.7225 4.25 1.3825 4.25 2.0625 C4.91 2.3925 5.57 2.7225 6.25 3.0625 C5.59 3.7225 4.93 4.3825 4.25 5.0625 C3.59 4.4025 2.93 3.7425 2.25 3.0625 C-1.98963281 2.74845313 -5.11534398 2.73632015 -8.75 5.0625 C-9.41 4.4025 -10.07 3.7425 -10.75 3.0625 C-7.55037281 -0.13712719 -4.37969494 -0.06440728 0 0 Z " fill="#D0E6F5" transform="translate(84.75,97.9375)"/>
<path d="M0 0 C0.33 0.66 0.66 1.32 1 2 C-0.95429123 6.23429766 -3.09284453 7.67431222 -7 10 C-7.8861215 11.0146225 -8.73932564 12.0586726 -9.5625 13.125 C-12.03778995 16.04457276 -12.49743284 16.39278963 -16 17 C-12.49012809 12.65444431 -8.85433155 8.91007338 -4.546875 5.35546875 C-2.72445486 3.75855009 -1.32463323 2.02590964 0 0 Z " fill="#011222" transform="translate(272,257)"/>
<path d="M0 0 C1.32 0.33 2.64 0.66 4 1 C3.01 4.96 2.02 8.92 1 13 C0.01 12.67 -0.98 12.34 -2 12 C-1.34 8.04 -0.68 4.08 0 0 Z " fill="#154E78" transform="translate(7,109)"/>
<path d="M0 0 C0.99 0.33 1.98 0.66 3 1 C3.33 1.99 3.66 2.98 4 4 C6.00016466 5.20882096 6.00016466 5.20882096 8 6 C8 6.99 8 7.98 8 9 C9.32 9.33 10.64 9.66 12 10 C11.67 10.99 11.34 11.98 11 13 C2.17904762 6.90285714 2.17904762 6.90285714 0 2 C0 1.34 0 0.68 0 0 Z " fill="#CBE4F2" transform="translate(217,126)"/>
<path d="M0 0 C2.26844039 3.40266059 2.80189993 6.0092118 3.625 10 C3.88539063 11.2375 4.14578125 12.475 4.4140625 13.75 C5 17 5 17 5 20 C4.01 19.67 3.02 19.34 2 19 C1.34 12.73 0.68 6.46 0 0 Z " fill="#C9E0F3" transform="translate(298,109)"/>
<path d="M0 0 C1.32 0.66 2.64 1.32 4 2 C3.34 2 2.68 2 2 2 C1.731875 2.61875 1.46375 3.2375 1.1875 3.875 C0 6 0 6 -3 8 C-3.72965366 10.56282742 -3.72965366 10.56282742 -4 13 C-5.32 12.67 -6.64 12.34 -8 12 C-5.36 8.04 -2.72 4.08 0 0 Z " fill="#D5E5F7" transform="translate(32,67)"/>
<path d="M0 0 C2.1640625 0.77734375 2.1640625 0.77734375 4.625 1.9375 C5.44226563 2.31777344 6.25953125 2.69804687 7.1015625 3.08984375 C7.72804687 3.39019531 8.35453125 3.69054687 9 4 C9 4.66 9 5.32 9 6 C10.32 6.33 11.64 6.66 13 7 C12.34 7.66 11.68 8.32 11 9 C11 8.34 11 7.68 11 7 C10.1028125 7.309375 10.1028125 7.309375 9.1875 7.625 C7 8 7 8 4 6 C3 5 2 4 1 3 C0.01 2.34 -0.98 1.68 -2 1 C-1.34 0.67 -0.68 0.34 0 0 Z " fill="#07425C" transform="translate(227,18)"/>
<path d="M0 0 C0.66 0.66 1.32 1.32 2 2 C1 3 1 3 -2.37890625 3.09765625 C-3.77347077 3.09098369 -5.16801743 3.07902532 -6.5625 3.0625 C-7.27341797 3.05798828 -7.98433594 3.05347656 -8.71679688 3.04882812 C-10.47790013 3.03700864 -12.23896036 3.01907263 -14 3 C-14 2.34 -14 1.68 -14 1 C-4.44705882 -0.31764706 -4.44705882 -0.31764706 0 0 Z " fill="#F0F0EC" transform="translate(176,11)"/>
<path d="M0 0 C4.95 0 9.9 0 15 0 C14.67 1.32 14.34 2.64 14 4 C12.04020573 3.71831703 10.08217622 3.42433283 8.125 3.125 C6.48917969 2.88136719 6.48917969 2.88136719 4.8203125 2.6328125 C2 2 2 2 0 0 Z " fill="#CEE8F8" transform="translate(121,160)"/>
<path d="M0 0 C0.33 0 0.66 0 1 0 C1.09765625 6.15234375 1.09765625 6.15234375 1 8 C0.67 8.33 0.34 8.66 0 9 C-0.12375 10.093125 -0.2475 11.18625 -0.375 12.3125 C-1.00217619 16.01283953 -1.69796732 17.21170908 -4 20 C-3.56615452 12.96871122 -2.25678003 6.670985 0 0 Z " fill="#C5DDEF" transform="translate(10,112)"/>
<path d="M0 0 C-0.33 0.66 -0.66 1.32 -1 2 C-3.31 2 -5.62 2 -8 2 C-8 2.66 -8 3.32 -8 4 C-9.65 4 -11.3 4 -13 4 C-12.1875 2.0625 -12.1875 2.0625 -11 0 C-6.94952424 -1.35015859 -4.2079832 -0.62084998 0 0 Z " fill="#165774" transform="translate(166,105)"/>
<path d="M0 0 C0.66 0 1.32 0 2 0 C-0.05764921 6.45353615 -2.42383482 12.7361263 -5 19 C-5.33 19 -5.66 19 -6 19 C-6.20675522 15.14746105 -5.62527747 12.480126 -4.125 8.9375 C-3.77695313 8.10089844 -3.42890625 7.26429687 -3.0703125 6.40234375 C-2.10426921 4.23403491 -1.08282396 2.11199448 0 0 Z " fill="#000B20" transform="translate(15,83)"/>
<path d="M0 0 C6.64615385 1.47692308 6.64615385 1.47692308 8.4375 4.125 C8.7159375 5.053125 8.7159375 5.053125 9 6 C10.98 6 12.96 6 15 6 C12.64561267 7.42944945 11.51967567 8.08661261 8.75 7.625 C8.1725 7.41875 7.595 7.2125 7 7 C7 6.34 7 5.68 7 5 C4.36 4.34 1.72 3.68 -1 3 C-0.67 2.01 -0.34 1.02 0 0 Z " fill="#115172" transform="translate(94,295)"/>
<path d="M0 0 C3.3 0.66 6.6 1.32 10 2 C10 2.33 10 2.66 10 3 C9.195625 3.12375 8.39125 3.2475 7.5625 3.375 C6.2940625 3.684375 6.2940625 3.684375 5 4 C4.67 4.66 4.34 5.32 4 6 C1.69 5.67 -0.62 5.34 -3 5 C-2.01 3.35 -1.02 1.7 0 0 Z " fill="#1D557B" transform="translate(134,227)"/>
<path d="M0 0 C0.33 0 0.66 0 1 0 C1.226875 1.216875 1.45375 2.43375 1.6875 3.6875 C2.74314476 7.97843013 4.60908897 10.11772563 8 13 C8.66 13.66 9.32 14.32 10 15 C9.01 15.33 8.02 15.66 7 16 C7 15.34 7 14.68 7 14 C5.68 14 4.36 14 3 14 C3 13.34 3 12.68 3 12 C2.34 11.67 1.68 11.34 1 11 C-0.75983132 6.92460115 -1.25792333 4.27693931 0 0 Z " fill="#D2E7F5" transform="translate(152,133)"/>
<path d="M0 0 C1.98 0 3.96 0 6 0 C6 0.66 6 1.32 6 2 C7.65 1.67 9.3 1.34 11 1 C11 1.66 11 2.32 11 3 C8.70954632 3.22127098 6.41755236 3.4266504 4.125 3.625 C2.21074219 3.79902344 2.21074219 3.79902344 0.2578125 3.9765625 C-0.81726563 3.98429687 -1.89234375 3.99203125 -3 4 C-3.66 3.34 -4.32 2.68 -5 2 C-3.35 2 -1.7 2 0 2 C0 1.34 0 0.68 0 0 Z " fill="#044D7C" transform="translate(158,107)"/>
<path d="M0 0 C2.31 0 4.62 0 7 0 C7 0.33 7 0.66 7 1 C8.98 1.66 10.96 2.32 13 3 C13 3.33 13 3.66 13 4 C8.71 4 4.42 4 0 4 C0 2.68 0 1.36 0 0 Z M2 1 C1.67 1.66 1.34 2.32 1 3 C1.66 3 2.32 3 3 3 C2.67 2.34 2.34 1.68 2 1 Z " fill="#025183" transform="translate(163,94)"/>
<path d="M0 0 C0.33 0.99 0.66 1.98 1 3 C1.66 2.34 2.32 1.68 3 1 C2.67 2.32 2.34 3.64 2 5 C4.33075929 4.04134491 4.33075929 4.04134491 6 1 C5.25 5.75 5.25 5.75 3 8 C-0.29714793 7.67028521 -1.6226839 7.3773161 -4 5 C-2.68 3.35 -1.36 1.7 0 0 Z " fill="#DCE2F0" transform="translate(41,55)"/>
<path d="M0 0 C-1.58074564 0.81752303 -3.16471223 1.62881997 -4.75 2.4375 C-5.63171875 2.88996094 -6.5134375 3.34242188 -7.421875 3.80859375 C-9.64198566 4.83455398 -11.61444619 5.51508603 -14 6 C-13.5625 3.625 -13.5625 3.625 -12 1 C-7.85239276 -0.6590429 -4.26606882 -1.42202294 0 0 Z " fill="#D3E8F7" transform="translate(224,291)"/>
<path d="M0 0 C0.99 0 1.98 0 3 0 C3 0.66 3 1.32 3 2 C3.61875 2.28875 4.2375 2.5775 4.875 2.875 C7 4 7 4 9 6 C9.66 6 10.32 6 11 6 C10.67 7.32 10.34 8.64 10 10 C10.66 10.33 11.32 10.66 12 11 C9 11 9 11 6.73828125 8.84765625 C5.93777344 7.92855469 5.13726562 7.00945312 4.3125 6.0625 C3.50425781 5.14597656 2.69601563 4.22945313 1.86328125 3.28515625 C0 1 0 1 0 0 Z " fill="#CDE2F0" transform="translate(40,254)"/>
<path d="M0 0 C4.30764815 1.56641751 8.06171464 3.68336156 12 6 C9 8 9 8 6.8125 7.625 C6.214375 7.41875 5.61625 7.2125 5 7 C5.33 6.34 5.66 5.68 6 5 C3.03 4.505 3.03 4.505 0 4 C0 2.68 0 1.36 0 0 Z " fill="#DCEAF7" transform="translate(227,23)"/>
<path d="M0 0 C0.928125 0.20625 1.85625 0.4125 2.8125 0.625 C-0.65491134 3.58249791 -4.05623527 5.70348152 -8.1875 7.625 C-5.8384901 -0.68688119 -5.8384901 -0.68688119 0 0 Z " fill="#1A5275" transform="translate(78.1875,22.375)"/>
<path d="M0 0 C7.08076251 -0.40850553 13.19925959 1.09579269 20 3 C20 3.33 20 3.66 20 4 C13.375 4.125 13.375 4.125 10 3 C10 3.66 10 4.32 10 5 C9.34 5 8.68 5 8 5 C8 4.34 8 3.68 8 3 C5.36 2.34 2.72 1.68 0 1 C0 0.67 0 0.34 0 0 Z " fill="#0A436B" transform="translate(176,2)"/>
<path d="M0 0 C0 1.32 0 2.64 0 4 C-0.66 4 -1.32 4 -2 4 C-1.67 5.65 -1.34 7.3 -1 9 C-2.37562854 7.71034824 -3.70766393 6.37310707 -5 5 C-5 4.34 -5 3.68 -5 3 C-5.66 3 -6.32 3 -7 3 C-7 2.34 -7 1.68 -7 1 C-3.375 -1.125 -3.375 -1.125 0 0 Z " fill="#E3E7F0" transform="translate(41,245)"/>
<path d="M0 0 C-2 3 -2 3 -3.98828125 3.546875 C-8.19433506 3.9144629 -11.88046706 4.19599343 -16 3 C-13.18207306 1.47870459 -10.56006978 0.51521029 -7.4375 -0.1875 C-6.67308594 -0.36667969 -5.90867188 -0.54585937 -5.12109375 -0.73046875 C-3 -1 -3 -1 0 0 Z " fill="#CFDDEF" transform="translate(190,233)"/>
<path d="M0 0 C8.91 1.485 8.91 1.485 18 3 C14.26034036 5.49310643 12.70929359 5.0603261 8.3125 4.625 C7.13300781 4.51414063 5.95351562 4.40328125 4.73828125 4.2890625 C3.83464844 4.19367188 2.93101562 4.09828125 2 4 C2 3.34 2 2.68 2 2 C1.34 2 0.68 2 0 2 C0 1.34 0 0.68 0 0 Z " fill="#CDE4F1" transform="translate(134,232)"/>
<path d="M0 0 C3.3125 -0.25 3.3125 -0.25 7 0 C8.9375 1.875 8.9375 1.875 10 4 C10 4.66 10 5.32 10 6 C6.62537285 5.45276317 4.91765 4.9451 2 3 C2 2.34 2 1.68 2 1 C1.34 0.67 0.68 0.34 0 0 Z " fill="#0A4E75" transform="translate(74,202)"/>
<path d="M0 0 C0.99 0.33 1.98 0.66 3 1 C2.67 1.99 2.34 2.98 2 4 C-0.0625 4.6875 -0.0625 4.6875 -2 5 C-2 5.99 -2 6.98 -2 8 C-4.475 7.01 -4.475 7.01 -7 6 C-6.21625 5.38125 -5.4325 4.7625 -4.625 4.125 C-2.03162353 2.10141339 -2.03162353 2.10141339 0 0 Z " fill="#D8E8F6" transform="translate(247,198)"/>
<path d="M0 0 C2.29903669 4.10542266 4.35523153 8.69099505 3.625 13.4375 C3.41875 13.953125 3.2125 14.46875 3 15 C2.525625 14.195625 2.05125 13.39125 1.5625 12.5625 C0.23099846 10.15246512 0.23099846 10.15246512 -1 9 C-1.1328125 7.1875 -1.1328125 7.1875 -1.125 5 C-1.12757813 4.278125 -1.13015625 3.55625 -1.1328125 2.8125 C-1 1 -1 1 0 0 Z " fill="#225B83" transform="translate(7,188)"/>
<path d="M0 0 C1.27259511 0.45341868 2.54301243 0.91295227 3.8125 1.375 C4.52019531 1.63023438 5.22789062 1.88546875 5.95703125 2.1484375 C8 3 8 3 11 5 C11 5.99 11 6.98 11 8 C7.89287788 7.21362959 4.90755893 6.36075884 2 5 C0.4375 2.3125 0.4375 2.3125 0 0 Z " fill="#104C73" transform="translate(184,97)"/>
<path d="M0 0 C-1.01953125 1.51953125 -1.01953125 1.51953125 -3 3 C-5.67108574 3.05546517 -8.05292823 2.96547069 -10.6875 2.6875 C-11.38939453 2.62626953 -12.09128906 2.56503906 -12.81445312 2.50195312 C-14.5442967 2.34897376 -16.27238497 2.17637398 -18 2 C-18 1.67 -18 1.34 -18 1 C-11.76647981 -1.3548854 -6.54311329 -0.87557031 0 0 Z " fill="#145077" transform="translate(144,307)"/>
<path d="M0 0 C1.32 0.33 2.64 0.66 4 1 C3.34 2.65 2.68 4.3 2 6 C0.68 5.67 -0.64 5.34 -2 5 C-2.33 5.99 -2.66 6.98 -3 8 C-3.66 7.34 -4.32 6.68 -5 6 C-3.35 4.02 -1.7 2.04 0 0 Z " fill="#1E5575" transform="translate(268,255)"/>
<path d="M0 0 C0.66 0 1.32 0 2 0 C0.6062718 4.43458973 -1.60582235 6.87378374 -5 10 C-6.43088528 7.13822943 -5.59991697 5.06624227 -5 2 C-3.35 2 -1.7 2 0 2 C0 1.34 0 0.68 0 0 Z " fill="#D2E4F5" transform="translate(279,238)"/>
<path d="M0 0 C1.32 0 2.64 0 4 0 C4 0.66 4 1.32 4 2 C3.34 2 2.68 2 2 2 C2 2.66 2 3.32 2 4 C0.03125 5.5078125 0.03125 5.5078125 -2.5 7.125 C-3.3353125 7.66382813 -4.170625 8.20265625 -5.03125 8.7578125 C-5.6809375 9.16773438 -6.330625 9.57765625 -7 10 C-7 9.01 -7 8.02 -7 7 C-5.69417053 5.96434215 -4.35622245 4.96873032 -3 4 C-2.505 3.278125 -2.01 2.55625 -1.5 1.8125 C-1.005 1.214375 -0.51 0.61625 0 0 Z " fill="#CFE1F5" transform="translate(235,197)"/>
<path d="M0 0 C0.268125 0.556875 0.53625 1.11375 0.8125 1.6875 C1.9783124 4.05953491 1.9783124 4.05953491 3.5625 6.375 C5.1558667 9.28462614 5.61916299 11.72480174 6 15 C3 14 3 14 1.796875 11.6015625 C1.45140625 10.61929688 1.1059375 9.63703125 0.75 8.625 C0.39421875 7.64789063 0.0384375 6.67078125 -0.328125 5.6640625 C-1 3 -1 3 0 0 Z " fill="#1B5178" transform="translate(86,147)"/>
<path d="M0 0 C2.33088789 2.87854637 3.83224797 5.61984828 5.1875 9.0625 C5.53167969 9.91972656 5.87585938 10.77695313 6.23046875 11.66015625 C7 14 7 14 7 17 C6.34 17 5.68 17 5 17 C5 15.35 5 13.7 5 12 C4.34 12 3.68 12 3 12 C1.23537317 8.91190305 1 7.76687864 1 4 C0.34 3.67 -0.32 3.34 -1 3 C-0.67 2.01 -0.34 1.02 0 0 Z " fill="#C7DEF2" transform="translate(78,132)"/>
<path d="M0 0 C-3.36423277 2.96052484 -6.69159287 3.92289822 -11 5 C-11.33 4.01 -11.66 3.02 -12 2 C-8.09971775 -0.60018816 -4.52565431 -0.15085514 0 0 Z " fill="#D6E6F5" transform="translate(205,220)"/>
<path d="M0 0 C1.65 0.33 3.3 0.66 5 1 C5 2.32 5 3.64 5 5 C2.69 5.33 0.38 5.66 -2 6 C-1.34 4.02 -0.68 2.04 0 0 Z " fill="#024D7E" transform="translate(156,134)"/>
<path d="M0 0 C3 1 3 1 4 3 C4.41527201 7.67181016 3.69993991 10.17508513 1 14 C0.34 13.34 -0.32 12.68 -1 12 C-0.34 11.01 0.32 10.02 1 9 C1.39387788 6.67612053 1.73486085 4.34206251 2 2 C0.35 2 -1.3 2 -3 2 C-2.01 1.34 -1.02 0.68 0 0 Z " fill="#C9DDF0" transform="translate(189,125)"/>
<path d="M0 0 C1.32 0 2.64 0 4 0 C2.34784004 3.57967992 0.26875648 6.77982952 -2 10 C-2.33 10 -2.66 10 -3 10 C-3.125 4.25 -3.125 4.25 -2 2 C-1.34 2 -0.68 2 0 2 C0 1.34 0 0.68 0 0 Z " fill="#155378" transform="translate(33,60)"/>
<path d="M0 0 C-2.22825644 2.22825644 -3.65761628 2.69239369 -6.625 3.625 C-7.44226563 3.88539062 -8.25953125 4.14578125 -9.1015625 4.4140625 C-9.72804688 4.60742188 -10.35453125 4.80078125 -11 5 C-11.33 4.34 -11.66 3.68 -12 3 C-11.34 3 -10.68 3 -10 3 C-10 2.01 -10 1.02 -10 0 C-6.30581799 -1.231394 -3.7943739 -0.64432764 0 0 Z " fill="#115076" transform="translate(104,12)"/>
<path d="M0 0 C1.21300781 -0.02578125 2.42601562 -0.0515625 3.67578125 -0.078125 C4.66964844 0.03015625 5.66351563 0.1384375 6.6875 0.25 C7.3475 1.24 8.0075 2.23 8.6875 3.25 C7.0375 3.25 5.3875 3.25 3.6875 3.25 C3.6875 2.59 3.6875 1.93 3.6875 1.25 C-2.2525 1.58 -8.1925 1.91 -14.3125 2.25 C-14.3125 1.92 -14.3125 1.59 -14.3125 1.25 C-9.54098717 0.34114041 -4.85763114 0.09984853 0 0 Z " fill="#D2E3F2" transform="translate(140.3125,4.75)"/>
<path d="M0 0 C0 0.99 0 1.98 0 3 C-2.3125 5.25 -2.3125 5.25 -5 7 C-8 6 -8 6 -11 4 C-7.37 2.68 -3.74 1.36 0 0 Z " fill="#195883" transform="translate(214,295)"/>
<path d="M0 0 C2.97 0.495 2.97 0.495 6 1 C6.33 2.65 6.66 4.3 7 6 C8.32 6 9.64 6 11 6 C10.67 7.32 10.34 8.64 10 10 C8.33037631 8.52417192 6.6643694 7.04425109 5 5.5625 C4.071875 4.73878906 3.14375 3.91507812 2.1875 3.06640625 C1.465625 2.38449219 0.74375 1.70257813 0 1 C0 0.67 0 0.34 0 0 Z " fill="#D4E6F6" transform="translate(53,267)"/>
<path d="M0 0 C0.66 0.33 1.32 0.66 2 1 C0.6875 2.5 0.6875 2.5 -1 4 C-1.99 4 -2.98 4 -4 4 C-4.33 4.66 -4.66 5.32 -5 6 C-7.4375 6.75 -7.4375 6.75 -10 7 C-10.66 6.34 -11.32 5.68 -12 5 C-10.04578965 4.13644222 -8.08648653 3.28440066 -6.125 2.4375 C-5.03445312 1.96183594 -3.94390625 1.48617187 -2.8203125 0.99609375 C-1.88960937 0.66738281 -0.95890625 0.33867187 0 0 Z " fill="#C6DDEE" transform="translate(208,224)"/>
<path d="M0 0 C1.32 0.66 2.64 1.32 4 2 C0.33708062 4.47785723 -2.6109185 5.48964169 -7 6 C-7 4.35 -7 2.7 -7 1 C-4.69 1 -2.38 1 0 1 C0 0.67 0 0.34 0 0 Z " fill="#1C5279" transform="translate(135,145)"/>
<path d="M0 0 C1.23556641 0.01740234 1.23556641 0.01740234 2.49609375 0.03515625 C3.32238281 0.04417969 4.14867187 0.05320312 5 0.0625 C5.63808594 0.07410156 6.27617187 0.08570313 6.93359375 0.09765625 C4.93359375 2.09765625 4.93359375 2.09765625 2.30859375 2.22265625 C1.52484375 2.18140625 0.74109375 2.14015625 -0.06640625 2.09765625 C-0.72640625 3.41765625 -1.38640625 4.73765625 -2.06640625 6.09765625 C-2.72640625 6.09765625 -3.38640625 6.09765625 -4.06640625 6.09765625 C-2.99738005 0.14165312 -2.99738005 0.14165312 0 0 Z " fill="#F3EBED" transform="translate(212.06640625,289.90234375)"/>
<path d="M0 0 C2.64 1.98 5.28 3.96 8 6 C7.01 7.485 7.01 7.485 6 9 C4.125 8.4375 4.125 8.4375 2 7 C0.75 3.375 0.75 3.375 0 0 Z " fill="#16506D" transform="translate(53,268)"/>
<path d="M0 0 C1.32 0.66 2.64 1.32 4 2 C2 5 2 5 -0.5 5.8125 C-1.7375 5.9053125 -1.7375 5.9053125 -3 6 C-3.66 5.34 -4.32 4.68 -5 4 C-3.35 2.68 -1.7 1.36 0 0 Z " fill="#0D496F" transform="translate(237,200)"/>
<path d="M0 0 C-1.58074564 0.81752303 -3.16471223 1.62881997 -4.75 2.4375 C-5.63171875 2.88996094 -6.5134375 3.34242187 -7.421875 3.80859375 C-9.64198566 4.83455398 -11.61444619 5.51508603 -14 6 C-14 5.01 -14 4.02 -14 3 C-12.33333333 2.33333333 -10.66666667 1.66666667 -9 1 C-8.154375 0.608125 -7.30875 0.21625 -6.4375 -0.1875 C-3.70858814 -1.09713729 -2.68056154 -0.79906803 0 0 Z " fill="#000B1D" transform="translate(90,15)"/>
<path d="M0 0 C0.99 0.495 0.99 0.495 2 1 C2 1.66 2 2.32 2 3 C2.99 3.33 3.98 3.66 5 4 C6.82421875 6.06640625 6.82421875 6.06640625 8.6875 8.5625 C9.31011719 9.38878906 9.93273438 10.21507812 10.57421875 11.06640625 C11.04472656 11.70449219 11.51523437 12.34257812 12 13 C11.01 13.495 11.01 13.495 10 14 C9.60167969 13.52949219 9.20335937 13.05898438 8.79296875 12.57421875 C8.26316406 11.95160156 7.73335937 11.32898438 7.1875 10.6875 C6.66542969 10.07261719 6.14335938 9.45773437 5.60546875 8.82421875 C4.03874971 6.99325229 4.03874971 6.99325229 2.34375 5.40625 C0.70415985 3.69039984 0.39791515 2.30790788 0 0 Z " fill="#00122A" transform="translate(38,258)"/>
<path d="M0 0 C0.66 0 1.32 0 2 0 C2.33 1.32 2.66 2.64 3 4 C0.24075815 5.80411967 -0.88972103 6.0127245 -4.25 5.625 C-5.1575 5.41875 -6.065 5.2125 -7 5 C-5.75 3.5 -5.75 3.5 -4 2 C-2.68 2 -1.36 2 0 2 C0 1.34 0 0.68 0 0 Z " fill="#E5E7F5" transform="translate(240,192)"/>
<path d="M0 0 C2.64 0.33 5.28 0.66 8 1 C7.875 2.875 7.875 2.875 7 5 C3.9375 6.25 3.9375 6.25 1 7 C1.020625 6.21625 1.04125 5.4325 1.0625 4.625 C1.18684063 2.01885039 1.18684063 2.01885039 0 0 Z " fill="#1F6997" transform="translate(114,158)"/>
<path d="M0 0 C0.6875 1.75 0.6875 1.75 1 4 C-0.4375 6.25 -0.4375 6.25 -2 8 C-4.31 7.67 -6.62 7.34 -9 7 C-6.98928293 5.42015087 -5.11803264 4.05733014 -2.8125 2.9375 C-0.82107843 2.13297839 -0.82107843 2.13297839 0 0 Z " fill="#1B557E" transform="translate(134,138)"/>
<path d="M0 0 C2.2601504 1.1300752 4.45079737 2.26833177 6.625 3.5625 C11.04758102 5.44619192 15.23750523 5.7270507 20 6 C20 6.33 20 6.66 20 7 C18.27119018 7.05449838 16.54187288 7.09301688 14.8125 7.125 C13.84957031 7.14820313 12.88664062 7.17140625 11.89453125 7.1953125 C7.26671116 6.88304394 4.76006846 5.86278042 1.6875 2.375 C1.130625 1.59125 0.57375 0.8075 0 0 Z " fill="#11486A" transform="translate(105,138)"/>
<path d="M0 0 C2.31 0.33 4.62 0.66 7 1 C7.33 2.32 7.66 3.64 8 5 C7.34 5 6.68 5 6 5 C6 4.01 6 3.02 6 2 C3.36 2.99 0.72 3.98 -2 5 C-1.34 3.35 -0.68 1.7 0 0 Z " fill="#1E5173" transform="translate(137,133)"/>
<path d="M0 0 C2.31 0 4.62 0 7 0 C7.33 0.66 7.66 1.32 8 2 C2.25 5.875 2.25 5.875 0 7 C0 4.69 0 2.38 0 0 Z " fill="#22567C" transform="translate(106,120)"/>
<path d="M0 0 C2.375 0.1875 2.375 0.1875 5 1 C5.72904086 2.64034193 6.38655243 4.31301918 7 6 C9.52056045 8.77152212 9.52056045 8.77152212 12 11 C6.71336455 8.84618556 3.22129633 4.57763162 0 0 Z " fill="#030B24" transform="translate(259,40)"/>
<path d="M0 0 C3.3 0 6.6 0 10 0 C10.33 0.99 10.66 1.98 11 3 C7.44706507 4.14947895 6.20023331 4.0868937 2.6875 2.5625 C1.800625 2.046875 0.91375 1.53125 0 1 C0 0.67 0 0.34 0 0 Z " fill="#CFE4F4" transform="translate(114,219)"/>
<path d="M0 0 C0.94875 0.144375 1.8975 0.28875 2.875 0.4375 C3.535 1.4275 4.195 2.4175 4.875 3.4375 C1.99288698 4.39820434 0.17649956 4.54331883 -2.8125 4.5 C-4.02486328 4.48646484 -4.02486328 4.48646484 -5.26171875 4.47265625 C-6.18404297 4.45525391 -6.18404297 4.45525391 -7.125 4.4375 C-4.79950611 1.57535367 -3.72105477 0.52094767 0 0 Z " fill="#185887" transform="translate(135.125,155.5625)"/>
<path d="M0 0 C3.2542015 2.83430453 4.5206753 4.68607774 5 9 C3.68 9 2.36 9 1 9 C0 2.25 0 2.25 0 0 Z " fill="#124C74" transform="translate(216,127)"/>
<path d="M0 0 C1.32 0.33 2.64 0.66 4 1 C4.33 3.64 4.66 6.28 5 9 C4.34 9 3.68 9 3 9 C2.67 9.99 2.34 10.98 2 12 C1.34 8.04 0.68 4.08 0 0 Z " fill="#1C5275" transform="translate(300,114)"/>
<path d="M0 0 C1.28132812 0.00902344 2.56265625 0.01804687 3.8828125 0.02734375 C4.87023437 0.03894531 5.85765625 0.05054687 6.875 0.0625 C6.875 0.3925 6.875 0.7225 6.875 1.0625 C6.00488281 1.13597656 6.00488281 1.13597656 5.1171875 1.2109375 C0.43576908 1.65899405 -3.69985459 2.360521 -8.125 4.0625 C-8.455 3.0725 -8.785 2.0825 -9.125 1.0625 C-6.12186252 -0.43906874 -3.33432478 -0.03031204 0 0 Z " fill="#BEE1F3" transform="translate(169.125,110.9375)"/>
<path d="M0 0 C0.33 0.66 0.66 1.32 1 2 C0.34 2 -0.32 2 -1 2 C-1 2.66 -1 3.32 -1 4 C-1.66 4 -2.32 4 -3 4 C-3.2475 4.7425 -3.495 5.485 -3.75 6.25 C-5.09147301 9.20124062 -6.60905526 10.84814974 -9 13 C-8.68033924 7.72559742 -5.60963971 4.56176651 -2 1 C-1.34 0.67 -0.68 0.34 0 0 Z " fill="#011120" transform="translate(32,60)"/>
<path d="M0 0 C0.66 0.33 1.32 0.66 2 1 C1.67 2.32 1.34 3.64 1 5 C0.01 5 -0.98 5 -2 5 C-2.845625 5.515625 -3.69125 6.03125 -4.5625 6.5625 C-5.366875 7.036875 -6.17125 7.51125 -7 8 C-7.66 7.67 -8.32 7.34 -9 7 C-7.87720538 6.01830524 -6.75168527 5.03972702 -5.625 4.0625 C-4.68527344 3.24458984 -4.68527344 3.24458984 -3.7265625 2.41015625 C-2 1 -2 1 0 0 Z " fill="#CFE0F3" transform="translate(61,37)"/>
<path d="M0 0 C0.66 0.33 1.32 0.66 2 1 C-0.37115444 3.74554724 -2.53079925 4.95117186 -6 6 C-9.3125 6.125 -9.3125 6.125 -12 6 C-9.48617788 4.32411859 -7.17052712 3.05969689 -4.4375 1.8125 C-3.65246094 1.44769531 -2.86742187 1.08289063 -2.05859375 0.70703125 C-1.37925781 0.47371094 -0.69992188 0.24039062 0 0 Z " fill="#00101F" transform="translate(221,296)"/>
<path d="M0 0 C0.66 0.33 1.32 0.66 2 1 C1.67 1.66 1.34 2.32 1 3 C1.763125 2.95875 2.52625 2.9175 3.3125 2.875 C6 3 6 3 9 5 C8.67 5.66 8.34 6.32 8 7 C4.04 5.35 0.08 3.7 -4 2 C-2.68 1.34 -1.36 0.68 0 0 Z " fill="#073F5E" transform="translate(92,295)"/>
<path d="M0 0 C5.23175837 -0.38281159 8.37802694 0.78145293 13 3 C11.296875 4.1171875 11.296875 4.1171875 9 5 C6.640625 4.3203125 6.640625 4.3203125 4.25 3.125 C3.45078125 2.73570312 2.6515625 2.34640625 1.828125 1.9453125 C0.92320313 1.47738281 0.92320313 1.47738281 0 1 C0 0.67 0 0.34 0 0 Z " fill="#215378" transform="translate(107,163)"/>
<path d="M0 0 C2.475 0.495 2.475 0.495 5 1 C5 1.66 5 2.32 5 3 C6.2065625 3.433125 6.2065625 3.433125 7.4375 3.875 C10 5 10 5 11 7 C10.01 7.33 9.02 7.66 8 8 C5.94272868 6.4045651 3.94125344 4.73473712 2 3 C1.34 2.67 0.68 2.34 0 2 C0 1.34 0 0.68 0 0 Z " fill="#1B557D" transform="translate(201,153)"/>
<path d="M0 0 C0.89203125 0.10183594 1.7840625 0.20367187 2.703125 0.30859375 C3.37859375 0.39238281 4.0540625 0.47617188 4.75 0.5625 C4.42 1.2225 4.09 1.8825 3.75 2.5625 C-1.86 2.5625 -7.47 2.5625 -13.25 2.5625 C-8.26881207 0.07190603 -5.49901803 -0.6511995 0 0 Z " fill="#BCE2F4" transform="translate(139.25,149.4375)"/>
<path d="M0 0 C1.45945288 0.08708669 2.91765868 0.19526907 4.375 0.3125 C5.59316406 0.39951172 5.59316406 0.39951172 6.8359375 0.48828125 C9 1 9 1 11 4 C11.99 4.66 12.98 5.32 14 6 C8.93001981 5.34580901 4.58009223 3.1453591 0 1 C0 0.67 0 0.34 0 0 Z " fill="#00122A" transform="translate(208,9)"/>
<path d="M0 0 C0 0.66 0 1.32 0 2 C-3.96 2.99 -7.92 3.98 -12 5 C-12 4.34 -12 3.68 -12 3 C-7.77050005 0.58314288 -4.87664009 -0.34833144 0 0 Z " fill="#1E5681" transform="translate(118,7)"/>
<path d="M0 0 C1.58323688 -0.027193 3.16661062 -0.04648306 4.75 -0.0625 C6.07257813 -0.07990234 6.07257813 -0.07990234 7.421875 -0.09765625 C9.7818838 -0.00826198 11.74498524 0.33087179 14 1 C14 1.66 14 2.32 14 3 C12.41590006 2.88512252 10.83271037 2.75765492 9.25 2.625 C8.36828125 2.55539063 7.4865625 2.48578125 6.578125 2.4140625 C4.00933618 2.00149945 2.24158985 1.28839043 0 0 Z " fill="#B4D2E5" transform="translate(140,228)"/>
<path d="M0 0 C0.66 1.32 1.32 2.64 2 4 C-3.53846154 4.36923077 -3.53846154 4.36923077 -5.875 2.5 C-6.24625 2.005 -6.6175 1.51 -7 1 C-4.53721199 -0.231394 -2.7204945 -0.07159196 0 0 Z " fill="#094C70" transform="translate(95,210)"/>
<path d="M0 0 C0.33 1.32 0.66 2.64 1 4 C-0.8125 5.5625 -0.8125 5.5625 -3 7 C-3.99 6.67 -4.98 6.34 -6 6 C-3.375 1.125 -3.375 1.125 0 0 Z " fill="#D5E4F0" transform="translate(147,138)"/>
<path d="M0 0 C1.32 0 2.64 0 4 0 C4 0.99 4 1.98 4 3 C4.66 3 5.32 3 6 3 C5.34 4.32 4.68 5.64 4 7 C2.35 5.02 0.7 3.04 -1 1 C-0.67 0.67 -0.34 0.34 0 0 Z " fill="#DBE5F4" transform="translate(201,92)"/>
<path d="M0 0 C1.32 1.65 2.64 3.3 4 5 C3.34 6.32 2.68 7.64 2 9 C2 8.34 2 7.68 2 7 C0.68 6.34 -0.64 5.68 -2 5 C-1.34 3.35 -0.68 1.7 0 0 Z " fill="#D6E6F6" transform="translate(284,78)"/>
<path d="M0 0 C5.28137429 0.51525603 8.57221156 2.25477117 13 5 C12.34 5.66 11.68 6.32 11 7 C7.37 5.02 3.74 3.04 0 1 C0 0.67 0 0.34 0 0 Z " fill="#215C82" transform="translate(219,18)"/>
<path d="M0 0 C1.67588141 2.51382212 2.94030311 4.82947288 4.1875 7.5625 C4.55230469 8.34753906 4.91710937 9.13257813 5.29296875 9.94140625 C5.52628906 10.62074219 5.75960938 11.30007812 6 12 C5.67 12.66 5.34 13.32 5 14 C4.1533966 12.61217515 3.32324661 11.21430603 2.5 9.8125 C2.0359375 9.03519531 1.571875 8.25789062 1.09375 7.45703125 C-0.10729647 4.75896614 -0.20741043 2.9193018 0 0 Z " fill="#01172B" transform="translate(9,209)"/>
<path d="M0 0 C1.0725 0.309375 2.145 0.61875 3.25 0.9375 C5.82866222 1.66812096 8.39512102 2.37482904 11 3 C11.33 4.32 11.66 5.64 12 7 C7.69235185 5.43358249 3.93828536 3.31663844 0 1 C0 0.67 0 0.34 0 0 Z " fill="#CCE0F3" transform="translate(80,201)"/>
<path d="M0 0 C2.88575819 0.39803561 3.82189513 0.79009069 5.75 3.0625 C6.1625 3.701875 6.575 4.34125 7 5 C6.01 5.33 5.02 5.66 4 6 C1.8125 4.75 1.8125 4.75 0 3 C0 2.01 0 1.02 0 0 Z " fill="#0C5074" transform="translate(62,193)"/>
<path d="M0 0 C2.64 0.66 5.28 1.32 8 2 C7.67 4.31 7.34 6.62 7 9 C6.938125 8.071875 6.938125 8.071875 6.875 7.125 C6.58625 6.42375 6.2975 5.7225 6 5 C3.00384054 3.6954344 3.00384054 3.6954344 0 3 C0 2.01 0 1.02 0 0 Z " fill="#B8DAED" transform="translate(112,166)"/>
<path d="M0 0 C0.33 1.32 0.66 2.64 1 4 C1.33 4.66 1.66 5.32 2 6 C2.039992 7.99960012 2.04346799 10.00047242 2 12 C1.34 12 0.68 12 0 12 C0 11.34 0 10.68 0 10 C-0.66 10 -1.32 10 -2 10 C-1.34 6.7 -0.68 3.4 0 0 Z " fill="#0A4161" transform="translate(5,114)"/>
<path d="M0 0 C2.31 0 4.62 0 7 0 C7 0.66 7 1.32 7 2 C7.99 2.33 8.98 2.66 10 3 C10 3.66 10 4.32 10 5 C8.948125 4.5359375 8.948125 4.5359375 7.875 4.0625 C4.91063343 2.96697322 2.12301892 2.43577008 -1 2 C-0.67 1.34 -0.34 0.68 0 0 Z " fill="#E8F2FC" transform="translate(176,120)"/>
<path d="M0 0 C1.32 0.66 2.64 1.32 4 2 C3.236875 2.5775 2.47375 3.155 1.6875 3.75 C-0.66200917 5.71703093 -2.29323505 7.48476744 -4 10 C-4.33 9.01 -4.66 8.02 -5 7 C-4.34 7 -3.68 7 -3 7 C-3 6.01 -3 5.02 -3 4 C-2.34 4 -1.68 4 -1 4 C-0.67 2.68 -0.34 1.36 0 0 Z " fill="#CBE3F5" transform="translate(157,114)"/>
<path d="M0 0 C2.64 0 5.28 0 8 0 C8.33 1.65 8.66 3.3 9 5 C6.03 4.01 3.06 3.02 0 2 C0 1.34 0 0.68 0 0 Z " fill="#19547F" transform="translate(202,10)"/>
<path d="M0 0 C-1.15173355 2.46800047 -2.04783565 4.04783565 -4 6 C-6.125 5.625 -6.125 5.625 -8 5 C-8 4.34 -8 3.68 -8 3 C-2.25 0 -2.25 0 0 0 Z " fill="#000611" transform="translate(231,292)"/>
<path d="M0 0 C2.475 0.495 2.475 0.495 5 1 C5.33 3.64 5.66 6.28 6 9 C3.43004926 7.71502463 3.09565537 6.50087627 1.875 3.9375 C1.52179687 3.20402344 1.16859375 2.47054687 0.8046875 1.71484375 C0.53914063 1.14894531 0.27359375 0.58304688 0 0 Z " fill="#054A68" transform="translate(17,227)"/>
<path d="M0 0 C1.22589844 0.01353516 1.22589844 0.01353516 2.4765625 0.02734375 C3.41628906 0.04474609 3.41628906 0.04474609 4.375 0.0625 C4.375 0.3925 4.375 0.7225 4.375 1.0625 C-0.55237019 3.03344808 -4.40520872 3.2424928 -9.625 3.0625 C-5.93535266 0.60273511 -4.35071521 -0.06215307 0 0 Z " fill="#B6D4E8" transform="translate(176.625,118.9375)"/>
<path d="M0 0 C4.62 0 9.24 0 14 0 C14.33 0.99 14.66 1.98 15 3 C7.575 2.01 7.575 2.01 0 1 C0 0.67 0 0.34 0 0 Z " fill="#144F74" transform="translate(172,118)"/>
<path d="M0 0 C2.79724672 2.01052108 3.15065585 4.18168077 4 7.4375 C2.66144944 6.65468695 1.32926356 5.86098123 0 5.0625 C-0.7425 4.62164062 -1.485 4.18078125 -2.25 3.7265625 C-2.8275 3.30117187 -3.405 2.87578125 -4 2.4375 C-4 1.7775 -4 1.1175 -4 0.4375 C-2 -0.5625 -2 -0.5625 0 0 Z " fill="#175179" transform="translate(193,94.5625)"/>
<path d="M0 0 C2 2 2 2 2.125 4.625 C2.08375 5.40875 2.0425 6.1925 2 7 C1.01 7.495 1.01 7.495 0 8 C-3 3.25 -3 3.25 -3 1 C-2.01 0.67 -1.02 0.34 0 0 Z " fill="#165375" transform="translate(286,74)"/>
<path d="M0 0 C-1.32350511 2.64701022 -2.20428498 3.04357118 -5 4 C-8.75 3.625 -8.75 3.625 -12 3 C-12 2.67 -12 2.34 -12 2 C-10.56342755 1.66269158 -9.12569907 1.33030409 -7.6875 1 C-6.88699219 0.814375 -6.08648437 0.62875 -5.26171875 0.4375 C-3 0 -3 0 0 0 Z " fill="#2B628A" transform="translate(196,302)"/>
<path d="M0 0 C2.97 0.495 2.97 0.495 6 1 C6.33 2.65 6.66 4.3 7 6 C2.32307692 4.52307692 2.32307692 4.52307692 0.6875 1.875 C0.460625 1.25625 0.23375 0.6375 0 0 Z " fill="#094060" transform="translate(47,267)"/>
<path d="M0 0 C1.32 0.33 2.64 0.66 4 1 C4 1.99 4 2.98 4 4 C2.02 4.99 0.04 5.98 -2 7 C-1.42415568 4.61435923 -0.77772405 2.33317216 0 0 Z " fill="#000611" transform="translate(34,256)"/>
<path d="M0 0 C2.96865509 2.54456151 4.3619751 5.48994665 6 9 C5.01 9.495 5.01 9.495 4 10 C4 9.34 4 8.68 4 8 C3.01 8 2.02 8 1 8 C0.67 5.36 0.34 2.72 0 0 Z " fill="#1C577B" transform="translate(22,229)"/>
<path d="M0 0 C0 0.99 0 1.98 0 3 C-2 5 -2 5 -5.625 5.125 C-6.73875 5.08375 -7.8525 5.0425 -9 5 C-9 4.34 -9 3.68 -9 3 C-2.25 0 -2.25 0 0 0 Z " fill="#D3E8F8" transform="translate(222,161)"/>
<path d="M0 0 C1.32 0.33 2.64 0.66 4 1 C4.33 2.32 4.66 3.64 5 5 C3.824375 5.2165625 3.824375 5.2165625 2.625 5.4375 C0.03578982 5.87798925 0.03578982 5.87798925 -2 7 C-2 6.01 -2 5.02 -2 4 C-0.68 3.67 0.64 3.34 2 3 C1.34 2.67 0.68 2.34 0 2 C0 1.34 0 0.68 0 0 Z " fill="#0A4A72" transform="translate(162,139)"/>
<path d="M0 0 C2.31 0.66 4.62 1.32 7 2 C6.01 2.99 5.02 3.98 4 5 C1.525 4.01 1.525 4.01 -1 3 C-0.67 2.01 -0.34 1.02 0 0 Z " fill="#D9EAF2" transform="translate(177,83)"/>
<path d="M0 0 C0.66 0.99 1.32 1.98 2 3 C0.35 4.65 -1.3 6.3 -3 8 C-3.66 7.67 -4.32 7.34 -5 7 C-3.88820837 3.66462511 -2.52588702 2.36292656 0 0 Z " fill="#094360" transform="translate(49,41)"/>
<path d="M0 0 C3.37462715 0.54723683 5.08235 1.0549 8 3 C9.1875 5.625 9.1875 5.625 10 8 C6.05205855 6.32971708 3.18203882 3.8204435 0 1 C0 0.67 0 0.34 0 0 Z " fill="#000F23" transform="translate(249,32)"/>
<path d="M0 0 C3.8063457 0.67170806 7.35206816 1.72746564 11 3 C11 3.33 11 3.66 11 4 C8.36 4.33 5.72 4.66 3 5 C2.87625 4.360625 2.7525 3.72125 2.625 3.0625 C2.315625 2.0415625 2.315625 2.0415625 2 1 C1.34 0.67 0.68 0.34 0 0 Z " fill="#0A4560" transform="translate(197,6)"/>
<path d="M0 0 C-0.33 0.99 -0.66 1.98 -1 3 C-4.5625 4.6875 -4.5625 4.6875 -8 6 C-6.37238544 1.11715631 -5.24891276 0 0 0 Z " fill="#0B4670" transform="translate(219,295)"/>
<path d="M0 0 C1.32 0.99 2.64 1.98 4 3 C1.525 4.485 1.525 4.485 -1 6 C-1 5.34 -1 4.68 -1 4 C-2.32 4.33 -3.64 4.66 -5 5 C-3.35 3.35 -1.7 1.7 0 0 Z " fill="#1E5477" transform="translate(251,272)"/>
<path d="M0 0 C0.66 0 1.32 0 2 0 C0.49776416 4.20626034 -2.28550034 5.73900021 -6 8 C-5.25 5.5625 -5.25 5.5625 -4 3 C-1.875 2.1875 -1.875 2.1875 0 2 C0 1.34 0 0.68 0 0 Z " fill="#C9E1F0" transform="translate(254,267)"/>
<path d="M0 0 C2.475 0.495 2.475 0.495 5 1 C5.625 2.875 5.625 2.875 6 5 C5.34 5.66 4.68 6.32 4 7 C2.02 3.535 2.02 3.535 0 0 Z " fill="#0E4869" transform="translate(23,237)"/>
<path d="M0 0 C0.33 0.66 0.66 1.32 1 2 C1.66 2.33 2.32 2.66 3 3 C-3.28571429 5.42857143 -3.28571429 5.42857143 -7 4 C-4.69 2.68 -2.38 1.36 0 0 Z " fill="#CDE2F3" transform="translate(217,219)"/>
<path d="M0 0 C2 3 2 3 1.75 5.4375 C1.05282249 7.81952314 0.20252143 9.83546142 -1 12 C-1 11.01 -1 10.02 -1 9 C-1.66 8.67 -2.32 8.34 -3 8 C-2.01 5.36 -1.02 2.72 0 0 Z " fill="#1D5578" transform="translate(295,210)"/>
<path d="M0 0 C1.625 2 1.625 2 3 4 C1.02 4.99 1.02 4.99 -1 6 C-2.32 4.68 -3.64 3.36 -5 2 C-2 0 -2 0 0 0 Z " fill="#225A82" transform="translate(242,197)"/>
<path d="M0 0 C1.98 0.99 3.96 1.98 6 3 C5.0409375 3.433125 5.0409375 3.433125 4.0625 3.875 C1.84793921 4.82823451 1.84793921 4.82823451 1 7 C0.01 6.01 -0.98 5.02 -2 4 C-1.34 2.68 -0.68 1.36 0 0 Z " fill="#225D81" transform="translate(74,198)"/>
<path d="M0 0 C2.475 0.99 2.475 0.99 5 2 C5 2.99 5 3.98 5 5 C3.68 4.34 2.36 3.68 1 3 C1 3.66 1 4.32 1 5 C0.01 4.67 -0.98 4.34 -2 4 C-1.34 2.68 -0.68 1.36 0 0 Z " fill="#285777" transform="translate(61,190)"/>
<path d="M0 0 C-0.99 0.33 -1.98 0.66 -3 1 C-3.33 1.66 -3.66 2.32 -4 3 C-6.64860427 3.59355614 -9.29197322 3.74209269 -12 4 C-4.75 -1.69642857 -4.75 -1.69642857 0 0 Z " fill="#2B6286" transform="translate(171,113)"/>
<path d="M0 0 C1.32 0 2.64 0 4 0 C4.33 1.65 4.66 3.3 5 5 C3.35 4.67 1.7 4.34 0 4 C0 2.68 0 1.36 0 0 Z " fill="#034D7C" transform="translate(195,95)"/>
<path d="M0 0 C2.64752004 2.57784846 4.94432065 4.91648098 7 8 C5.68 8 4.36 8 3 8 C1.25 6.25 1.25 6.25 0 4 C0 2.68 0 1.36 0 0 Z " fill="#CAE3F4" transform="translate(263,50)"/>
<path d="M0 0 C0 3.57575896 -1.08840607 5.05295935 -3 8 C-4.32 7.67 -5.64 7.34 -7 7 C-4.69 4.69 -2.38 2.38 0 0 Z " fill="#CCE0F4" transform="translate(49,47)"/>
<path d="M0 0 C0.66 0 1.32 0 2 0 C0.33248852 3.94139078 -2.22710649 6.7892812 -5 10 C-5 6.79604584 -4.25664978 4.90600261 -3 2 C-2.01 2 -1.02 2 0 2 C0 1.34 0 0.68 0 0 Z " fill="#01172C" transform="translate(42,46)"/>
<path d="M0 0 C0 2.67884659 -0.11409459 4.50335747 -1 7 C-1.99 7.66 -2.98 8.32 -4 9 C-4.33 7.35 -4.66 5.7 -5 4 C-4.34 4 -3.68 4 -3 4 C-1.36323743 2.0399719 -1.36323743 2.0399719 0 0 Z " fill="#E9F7FE" transform="translate(269,249)"/>
<path d="M0 0 C0.33 0.99 0.66 1.98 1 3 C0.01 3.99 -0.98 4.98 -2 6 C-3.32 5.34 -4.64 4.68 -6 4 C-4.02 2.68 -2.04 1.36 0 0 Z " fill="#CCE3F4" transform="translate(231,210)"/>
<path d="M0 0 C0.75 1.75 0.75 1.75 1 4 C-0.75 6.25 -0.75 6.25 -3 8 C-3.99 8 -4.98 8 -6 8 C-5.67 7.01 -5.34 6.02 -5 5 C-3.68 5 -2.36 5 -1 5 C-0.67 3.35 -0.34 1.7 0 0 Z " fill="#E6F1FD" transform="translate(119,173)"/>
<path d="M0 0 C0.99 0.33 1.98 0.66 3 1 C1.02 1.99 1.02 1.99 -1 3 C-1 3.66 -1 4.32 -1 5 C-1.99 5.33 -2.98 5.66 -4 6 C-4.66 5.34 -5.32 4.68 -6 4 C-3.1875 1.9375 -3.1875 1.9375 0 0 Z " fill="#1B547D" transform="translate(80,100)"/>
<path d="M0 0 C-3 2 -3 2 -5 2 C-5 2.66 -5 3.32 -5 4 C-6.65 3.67 -8.3 3.34 -10 3 C-9 1 -9 1 -6.125 -0.1875 C-3 -1 -3 -1 0 0 Z " fill="#0D486B" transform="translate(125,4)"/>
<path d="M0 0 C4.21912747 0.4794463 6.79663178 1.16625119 10 4 C7 5 7 5 5.17578125 4.22265625 C3.45052083 3.1484375 1.72526042 2.07421875 0 1 C0 0.67 0 0.34 0 0 Z " fill="#CEE0F2" transform="translate(78,286)"/>
<path d="M0 0 C0.66 0.66 1.32 1.32 2 2 C1.625 4.625 1.625 4.625 1 7 C-0.32 6.34 -1.64 5.68 -3 5 C-2.01 3.35 -1.02 1.7 0 0 Z " fill="#175581" transform="translate(282,236)"/>
<path d="M0 0 C0.33 1.32 0.66 2.64 1 4 C-1.31 4 -3.62 4 -6 4 C-5.67 3.01 -5.34 2.02 -5 1 C-2 0 -2 0 0 0 Z " fill="#19538A" transform="translate(192,226)"/>
<path d="M0 0 C2.475 0.99 2.475 0.99 5 2 C5 3.32 5 4.64 5 6 C3.68 5.67 2.36 5.34 1 5 C0.67 3.35 0.34 1.7 0 0 Z " fill="#194C6B" transform="translate(113,169)"/>
<path d="M0 0 C-1.97420135 2.52259061 -2.96745642 2.9929808 -6.1875 3.6875 C-7.5796875 3.8421875 -7.5796875 3.8421875 -9 4 C-8.67 3.01 -8.34 2.02 -8 1 C-5.29120665 -0.35439668 -2.99066732 -0.06501451 0 0 Z " fill="#215784" transform="translate(221,160)"/>
<path d="M0 0 C1.67542976 0.28604898 3.34385343 0.61781233 5 1 C4.01 1.66 3.02 2.32 2 3 C0.80767387 5.05003955 0.80767387 5.05003955 0 7 C-0.33 7 -0.66 7 -1 7 C-1.04254356 5.00045254 -1.04080783 2.99958364 -1 1 C-0.67 0.67 -0.34 0.34 0 0 Z " fill="#1C4C73" transform="translate(154,132)"/>
<path d="M0 0 C1.32 0 2.64 0 4 0 C6 3 6 3 5.625 5.1875 C5.41875 5.785625 5.2125 6.38375 5 7 C1.125 2.25 1.125 2.25 0 0 Z " fill="#195580" transform="translate(139,121)"/>
<path d="M0 0 C1.875 0.125 1.875 0.125 4 1 C5.75 3.5625 5.75 3.5625 7 6 C3.62496331 4.8141763 1.35277269 3.72426311 -1 1 C-0.67 0.67 -0.34 0.34 0 0 Z " fill="#D4E5F4" transform="translate(91,102)"/>
<path d="M0 0 C0.66 1.32 1.32 2.64 2 4 C1.34 4 0.68 4 0 4 C-0.103125 4.639375 -0.20625 5.27875 -0.3125 5.9375 C-0.539375 6.618125 -0.76625 7.29875 -1 8 C-1.99 8.33 -2.98 8.66 -4 9 C-2.94124926 5.59687262 -1.99097846 2.98646769 0 0 Z " fill="#054061" transform="translate(20,78)"/>
<path d="M0 0 C-2.97 2.475 -2.97 2.475 -6 5 C-6.66 4.67 -7.32 4.34 -8 4 C-7 1 -7 1 -4.5625 -0.25 C-2 -1 -2 -1 0 0 Z " fill="#215F8C" transform="translate(64,35)"/>
<path d="M0 0 C0.33 0.66 0.66 1.32 1 2 C-0.98 2.33 -2.96 2.66 -5 3 C-5 2.34 -5 1.68 -5 1 C-5.99 0.67 -6.98 0.34 -8 0 C-5.09660535 -1.45169732 -3.09125158 -0.72348441 0 0 Z " fill="#0A446C" transform="translate(216,12)"/>
<path d="M0 0 C1.32 0.66 2.64 1.32 4 2 C1.03 4.475 1.03 4.475 -2 7 C-2.33 6.01 -2.66 5.02 -3 4 C-2.01 4 -1.02 4 0 4 C0 2.68 0 1.36 0 0 Z " fill="#DAE5F6" transform="translate(260,259)"/>
<path d="M0 0 C0.33 0.66 0.66 1.32 1 2 C-0.73397418 5.65047197 -2.19333016 7.55609075 -6 9 C-4.47291037 5.56404834 -2.40072955 2.88087546 0 0 Z " fill="#020819" transform="translate(272,257)"/>
<path d="M0 0 C2.97 0 5.94 0 9 0 C9 0.33 9 0.66 9 1 C7.02 1.33 5.04 1.66 3 2 C3 2.66 3 3.32 3 4 C1.68 3.67 0.36 3.34 -1 3 C-0.67 2.01 -0.34 1.02 0 0 Z " fill="#074870" transform="translate(149,231)"/>
<path d="M0 0 C2.475 0.99 2.475 0.99 5 2 C2.6226839 4.3773161 1.29714793 4.67028521 -2 5 C-2.66 4.34 -3.32 3.68 -4 3 C-2.68 2.67 -1.36 2.34 0 2 C0 1.34 0 0.68 0 0 Z " fill="#205B81" transform="translate(89,207)"/>
<path d="M0 0 C0.66 0.33 1.32 0.66 2 1 C1.67 3.64 1.34 6.28 1 9 C0.01 8.67 -0.98 8.34 -2 8 C-1.34 5.36 -0.68 2.72 0 0 Z " fill="#1A5479" transform="translate(301,192)"/>
<path d="M0 0 C1.32 1.32 2.64 2.64 4 4 C2.02 4.99 2.02 4.99 0 6 C-0.38218767 4.34385343 -0.71395102 2.67542976 -1 1 C-0.67 0.67 -0.34 0.34 0 0 Z " fill="#265072" transform="translate(247,192)"/>
<path d="M0 0 C0.33 0 0.66 0 1 0 C1.33 2.97 1.66 5.94 2 9 C1.67 8.34 1.34 7.68 1 7 C0.01 7.33 -0.98 7.66 -2 8 C-1.47731534 5.23723823 -0.89130413 2.6739124 0 0 Z " fill="#16536E" transform="translate(3,165)"/>
<path d="M0 0 C0.66 0.33 1.32 0.66 2 1 C2 1.66 2 2.32 2 3 C1.34 3 0.68 3 0 3 C0 4.65 0 6.3 0 8 C-0.99 8 -1.98 8 -3 8 C-1.125 1.125 -1.125 1.125 0 0 Z " fill="#D5E7F5" transform="translate(235,142)"/>
<path d="M0 0 C2 2 2 2 2 5 C0.02 5.99 -1.96 6.98 -4 8 C-3.67 6.68 -3.34 5.36 -3 4 C-2.01 4 -1.02 4 0 4 C0 2.68 0 1.36 0 0 Z " fill="#CEDDEC" transform="translate(134,125)"/>
<path d="M0 0 C1.98 0 3.96 0 6 0 C6 0.99 6 1.98 6 3 C5.34 3.66 4.68 4.32 4 5 C2 3.625 2 3.625 0 2 C0 1.34 0 0.68 0 0 Z " fill="#DAE3ED" transform="translate(137,115)"/>
<path d="M0 0 C0.66 0 1.32 0 2 0 C2 0.66 2 1.32 2 2 C3.65 2.33 5.3 2.66 7 3 C6.67 3.99 6.34 4.98 6 6 C3.37812506 4.95125002 2.20628639 4.35068687 0.75 1.875 C0.5025 1.25625 0.255 0.6375 0 0 Z " fill="#18557B" transform="translate(273,61)"/>
<path d="M0 0 C1.70884005 1.62339805 3.37446717 3.29319053 5 5 C5 5.66 5 6.32 5 7 C4.01 7 3.02 7 2 7 C2 6.34 2 5.68 2 5 C1.34 5 0.68 5 0 5 C0 3.35 0 1.7 0 0 Z " fill="#104462" transform="translate(273,56)"/>
<path d="M0 0 C2.0625 0.4375 2.0625 0.4375 4 1 C2.02 1.99 2.02 1.99 0 3 C0 3.66 0 4.32 0 5 C-0.99 5.33 -1.98 5.66 -3 6 C-1.125 1.125 -1.125 1.125 0 0 Z " fill="#000816" transform="translate(62,27)"/>
<path d="M0 0 C3.3 0 6.6 0 10 0 C8.515 1.485 8.515 1.485 7 3 C3.875 2.8125 3.875 2.8125 1 2 C0.67 1.34 0.34 0.68 0 0 Z " fill="#F0EEFD" transform="translate(147,5)"/>
<path d="M0 0 C2.31 0 4.62 0 7 0 C7.33 1.32 7.66 2.64 8 4 C2.25 2.25 2.25 2.25 0 0 Z " fill="#D1E1F1" transform="translate(87,291)"/>
<path d="M0 0 C-0.25 1.875 -0.25 1.875 -1 4 C-3.0625 5.25 -3.0625 5.25 -5 6 C-5.33 5.34 -5.66 4.68 -6 4 C-5.01 4 -4.02 4 -3 4 C-3.33 3.01 -3.66 2.02 -4 1 C-2 0 -2 0 0 0 Z " fill="#07436B" transform="translate(250,276)"/>
<path d="M0 0 C-0.3125 1.875 -0.3125 1.875 -1 4 C-1.99 4.66 -2.98 5.32 -4 6 C-4.33 5.34 -4.66 4.68 -5 4 C-4.67 3.01 -4.34 2.02 -4 1 C-2 0 -2 0 0 0 Z " fill="#064361" transform="translate(262,266)"/>
<path d="M0 0 C0.99 0.33 1.98 0.66 3 1 C3 2.65 3 4.3 3 6 C1.35 4.35 -0.3 2.7 -2 1 C-1.34 0.67 -0.68 0.34 0 0 Z " fill="#084A73" transform="translate(37,253)"/>
<path d="M0 0 C2.95929119 2.75520215 5.03681826 5.46627288 7 9 C5.1875 8.875 5.1875 8.875 3 8 C0 2.96428571 0 2.96428571 0 0 Z " fill="#021327" transform="translate(29,247)"/>
<path d="M0 0 C0.6875 1.6875 0.6875 1.6875 1 4 C-0.3125 6.75 -0.3125 6.75 -2 9 C-2.66 9 -3.32 9 -4 9 C-2.80100302 5.9168649 -1.52299523 2.93720508 0 0 Z " fill="#001020" transform="translate(293,225)"/>
<path d="M0 0 C0.99 0.33 1.98 0.66 3 1 C2.67 2.65 2.34 4.3 2 6 C0.68 5.01 -0.64 4.02 -2 3 C-1.34 2.01 -0.68 1.02 0 0 Z " fill="#D9E4F1" transform="translate(77,195)"/>
<path d="M0 0 C0.66 0.33 1.32 0.66 2 1 C1.67 2.98 1.34 4.96 1 7 C0.01 7 -0.98 7 -2 7 C-1.814375 6.38125 -1.62875 5.7625 -1.4375 5.125 C-0.76313824 2.95839822 -0.76313824 2.95839822 -2 1 C-1.34 0.67 -0.68 0.34 0 0 Z " fill="#C7DDF2" transform="translate(138,163)"/>
<path d="M0 0 C2.375 -0.1875 2.375 -0.1875 5 0 C5.66 0.99 6.32 1.98 7 3 C5.68 3.33 4.36 3.66 3 4 C2.67 3.01 2.34 2.02 2 1 C1.34 0.67 0.68 0.34 0 0 Z " fill="#084A74" transform="translate(99,163)"/>
<path d="M0 0 C2.64 1.98 5.28 3.96 8 6 C7.01 6.495 7.01 6.495 6 7 C2.58841744 5.86280581 1.88145399 4.95657056 0 2 C0 1.34 0 0.68 0 0 Z " fill="#BFD9EE" transform="translate(70,125)"/>
<path d="M0 0 C1.32 0 2.64 0 4 0 C3.6875 1.9375 3.6875 1.9375 3 4 C2.01 4.33 1.02 4.66 0 5 C0 3.35 0 1.7 0 0 Z " fill="#074972" transform="translate(193,128)"/>
<path d="M0 0 C5.75 3.625 5.75 3.625 8 7 C5.0280615 5.87548273 2.66559313 4.77706209 0 3 C0 2.01 0 1.02 0 0 Z " fill="#A7D8EE" transform="translate(190,97)"/>
<path d="M0 0 C3.26460973 1.80412643 4.88929795 2.83394693 7 6 C5.35 5.67 3.7 5.34 2 5 C2 4.01 2 3.02 2 2 C1.34 2 0.68 2 0 2 C0 1.34 0 0.68 0 0 Z " fill="#BEDAEA" transform="translate(256,44)"/>
<path d="M0 0 C1.65 1.65 3.3 3.3 5 5 C3.68 5.33 2.36 5.66 1 6 C0.34 4.35 -0.32 2.7 -1 1 C-0.67 0.67 -0.34 0.34 0 0 Z " fill="#094763" transform="translate(250,33)"/>
<path d="M0 0 C2.31 0 4.62 0 7 0 C6.67 1.32 6.34 2.64 6 4 C4.02 3.01 2.04 2.02 0 1 C0 0.67 0 0.34 0 0 Z " fill="#000D1C" transform="translate(224,16)"/>
<path d="M0 0 C2.475 0.495 2.475 0.495 5 1 C5.33 2.32 5.66 3.64 6 5 C4.35 4.67 2.7 4.34 1 4 C0.67 2.68 0.34 1.36 0 0 Z " fill="#195A7A" transform="translate(194,6)"/>
<path d="M0 0 C3.71599191 -0.20086443 4.77208445 -0.1519437 8 2 C8 2.66 8 3.32 8 4 C5.125 3.6875 5.125 3.6875 2 3 C1.34 2.01 0.68 1.02 0 0 Z " fill="#1B5E87" transform="translate(176,3)"/>
</svg>
